<?xml version="1.0" encoding="UTF-8" standalone="no"?>
<svg
   id="svg2"
   viewBox="0 0 300 400"
   version="1.1"
   sodipodi:docname="qabc.svg"
   inkscape:version="1.4 (e7c3feb100, 2024-10-09)"
   xmlns:inkscape="http://www.inkscape.org/namespaces/inkscape"
   xmlns:sodipodi="http://sodipodi.sourceforge.net/DTD/sodipodi-0.dtd"
   xmlns:xlink="http://www.w3.org/1999/xlink"
   xmlns="http://www.w3.org/2000/svg"
   xmlns:svg="http://www.w3.org/2000/svg"
   xmlns:rdf="http://www.w3.org/1999/02/22-rdf-syntax-ns#"
   xmlns:cc="http://creativecommons.org/ns#"
   xmlns:dc="http://purl.org/dc/elements/1.1/">
  <sodipodi:namedview
     id="namedview1"
     pagecolor="#ffffff"
     bordercolor="#000000"
     borderopacity="0.25"
     inkscape:showpageshadow="2"
     inkscape:pageopacity="0.0"
     inkscape:pagecheckerboard="0"
     inkscape:deskcolor="#d1d1d1"
     showgrid="false"
     inkscape:zoom="1.445"
     inkscape:cx="-1.7301038"
     inkscape:cy="227.68166"
     inkscape:window-width="1600"
     inkscape:window-height="831"
     inkscape:window-x="0"
     inkscape:window-y="0"
     inkscape:window-maximized="1"
     inkscape:current-layer="g3794" />
  <defs
     id="defs6">
    <linearGradient
       id="linearGradient3773">
      <stop
         id="stop3775"
         stop-color="#decd87"
         offset="0" />
      <stop
         id="stop3926"
         stop-color="#decd87"
         offset=".37279" />
      <stop
         id="stop3777"
         stop-color="#fae698"
         offset="1" />
    </linearGradient>
    <linearGradient
       id="linearGradient3997"
       y2="49.875"
       xlink:href="#linearGradient3773"
       gradientUnits="userSpaceOnUse"
       x2="102.12"
       y1="58.875"
       x1="102.25" />
    <linearGradient
       id="linearGradient3999"
       y2="49.875"
       xlink:href="#linearGradient3773"
       gradientUnits="userSpaceOnUse"
       x2="102.12"
       gradientTransform="translate(10)"
       y1="58.875"
       x1="102.25" />
    <linearGradient
       id="linearGradient4001"
       y2="49.875"
       xlink:href="#linearGradient3773"
       gradientUnits="userSpaceOnUse"
       x2="102.12"
       gradientTransform="translate(20)"
       y1="58.875"
       x1="102.25" />
    <linearGradient
       id="linearGradient4003"
       y2="49.875"
       xlink:href="#linearGradient3773"
       gradientUnits="userSpaceOnUse"
       x2="102.12"
       gradientTransform="translate(30)"
       y1="58.875"
       x1="102.25" />
    <linearGradient
       id="linearGradient4005"
       y2="49.875"
       xlink:href="#linearGradient3773"
       gradientUnits="userSpaceOnUse"
       x2="102.12"
       gradientTransform="translate(40)"
       y1="58.875"
       x1="102.25" />
  </defs>
  <g
     id="g4017">
    <g
       id="g3806"
       transform="translate(7.0866 3.937)">
      <rect
         id="rect2993"
         height="8.9076"
         width="128.54"
         stroke="#483737"
         stroke-linecap="square"
         y="49.156"
         x="75.822"
         stroke-width="3"
         fill="#decd87" />
      <g
         id="g3794"
         stroke="#000"
         stroke-width="1px"
         transform="translate(-4.9067 -7)"
         fill="none"
         style="fill:#008080;fill-opacity:1;stroke-width:1;stroke-dasharray:none">
        <path
           id="path3774"
           d="m140 60v250"
           style="fill:#008080;fill-opacity:1;stroke-width:1;stroke-dasharray:none" />
        <path
           id="path3776"
           d="m150 60v250"
           style="fill:#008080;fill-opacity:1;stroke-width:1;stroke-dasharray:none" />
        <path
           id="path3778"
           d="m160 60v250"
           style="fill:#008080;fill-opacity:1;stroke-width:1;stroke-dasharray:none" />
        <path
           id="path3780"
           d="m170 60v250"
           style="fill:#008080;fill-opacity:1;stroke-width:1;stroke-dasharray:none" />
        <path
           id="path3782"
           d="m180 60v250"
           style="fill:#008080;fill-opacity:1;stroke-width:1;stroke-dasharray:none" />
        <path
           id="path3784"
           d="m130 60v250"
           style="fill:#008080;fill-opacity:1;stroke-width:1;stroke-dasharray:none" />
        <path
           id="path3786"
           d="m120 60v250"
           style="fill:#008080;fill-opacity:1;stroke-width:1;stroke-dasharray:none" />
        <path
           id="path3788"
           d="m110 60v250"
           style="fill:#008080;fill-opacity:1;stroke-width:1;stroke-dasharray:none" />
        <path
           id="path3790"
           d="m100 60v250"
           style="fill:#008080;fill-opacity:1;stroke-width:1;stroke-dasharray:none" />
        <path
           id="path3792"
           d="m190 60v250"
           style="fill:#008080;fill-opacity:1;stroke-width:1;stroke-dasharray:none" />
        <path
           style="fill:#ffffff;stroke:none;stroke-width:0.692042;fill-opacity:1"
           d="M 96.539792,291.82852 C 71.60901,278.00908 57.385041,256.22817 53.940174,226.59648 c -1.017969,-8.75626 -0.542075,-17.18849 1.813497,-32.13281 3.137115,-19.90262 6.33895,-32.39882 16.224611,-63.3218 9.992204,-31.256253 15.006694,-50.17679 16.919671,-63.840832 l 0.46021,-3.287197 h 5.83995 5.839947 V 178.89273 c 0,63.18339 -0.23356,114.87326 -0.51903,114.86636 -0.28547,-0.007 -2.076123,-0.87565 -3.979238,-1.93057 z"
           id="path1"
           transform="translate(-2.1799,3.063)" />
        <path
           style="fill:#ffffff;fill-opacity:1;stroke:none;stroke-width:0.692042"
           d="m 107.26644,296.98392 -3.80623,-1.56748 -0.17504,-115.7013 -0.17503,-115.701299 h 4.15427 4.15428 V 181.31488 c 0,64.51557 -0.0779,117.28652 -0.17302,117.26879 -0.0952,-0.0177 -1.88581,-0.73763 -3.97923,-1.59975 z"
           id="path2"
           transform="translate(-2.1799,3.063)" />
        <path
           style="fill:#ffffff;fill-opacity:1;stroke:none;stroke-width:0.692042"
           d="m 116.43599,300.20156 -3.63322,-1.07087 V 181.57227 64.013841 h 4.15225 4.15225 V 182.69896 c 0,65.27682 -0.23357,118.66 -0.51903,118.6293 -0.28547,-0.0307 -2.15398,-0.53772 -4.15225,-1.1267 z"
           id="path3"
           transform="translate(-2.1799,3.063)" />
        <path
           style="fill:#ffffff;fill-opacity:1;stroke:none;stroke-width:0.692042"
           d="m 126.81661,302.63317 -3.63322,-0.66262 V 182.9922 64.013841 h 4.15225 4.15225 V 183.73702 c 0,65.84776 -0.23356,119.68619 -0.51903,119.64097 -0.28547,-0.0452 -2.15398,-0.38038 -4.15225,-0.74482 z"
           id="path4"
           transform="translate(-2.1799,3.063)" />
        <path
           style="fill:#ffffff;fill-opacity:1;stroke:none;stroke-width:0.692042"
           d="m 134.08304,303.6752 c -1.14751,-0.29987 -1.21107,-6.5971 -1.21107,-119.98892 V 64.013841 h 4.15225 4.15225 V 184.08304 304.15225 l -2.94118,-0.0803 c -1.61764,-0.0442 -3.48616,-0.2227 -4.15225,-0.39677 z"
           id="path5"
           transform="translate(-2.1799,3.063)" />
        <path
           style="fill:#ffffff;fill-opacity:1;stroke:none;stroke-width:0.692042"
           d="M 143.2526,184.08304 V 64.013841 h 4.15224 4.15225 V 184.08304 304.15225 h -4.15225 -4.15224 z"
           id="path6"
           transform="translate(-2.1799,3.063)" />
        <path
           style="fill:#ffffff;fill-opacity:1;stroke:none;stroke-width:0.692042"
           d="M 152.94118,184.08304 V 64.013841 h 4.15225 4.15224 V 183.65631 303.29878 l -1.55709,0.41728 c -0.8564,0.22951 -2.72491,0.42155 -4.15225,0.42674 l -2.59515,0.009 z"
           id="path7"
           transform="translate(-2.1799,3.063)" />
        <path
           style="fill:#ffffff;fill-opacity:1;stroke:none;stroke-width:0.692042"
           d="M 163.3218,183.61822 V 64.013841 h 4.15225 4.15225 V 182.94952 301.8852 l -4.15225,0.6687 -4.15225,0.6687 z"
           id="path8"
           transform="translate(-2.1799,3.063)" />
        <path
           style="fill:#ffffff;fill-opacity:1;stroke:none;stroke-width:0.692042"
           d="M 173.01038,182.7456 V 64.013841 h 4.15225 4.15225 V 181.63423 299.25461 l -2.94118,0.75991 c -1.61764,0.41794 -3.48616,0.91806 -4.15225,1.11137 -1.15006,0.33376 -1.21107,-5.6299 -1.21107,-118.38029 z"
           id="path9"
           transform="translate(-2.1799,3.063)" />
        <path
           style="fill:#ffffff;fill-opacity:1;stroke:none;stroke-width:0.692042"
           d="M 182.69896,181.31488 V 64.013841 h 4.15225 4.15225 V 179.83475 295.65566 l -3.86781,1.48013 c -2.12729,0.81407 -3.99581,1.48013 -4.15225,1.48013 -0.15644,0 -0.28444,-52.78547 -0.28444,-117.30104 z"
           id="path10"
           transform="translate(-2.1799,3.063)" />
        <path
           style="fill:#ffffff;fill-opacity:1;stroke:none;stroke-width:0.692042"
           d="M 193.07958,179.23875 V 64.013841 h 6.44204 6.44203 l 0.89899,6.351725 c 0.93706,6.620717 4.8128,23.999932 6.68595,29.980454 0.59607,1.90311 5.57076,17.00692 11.05486,33.56401 13.27809,40.08797 16.28052,52.07025 18.6018,74.23728 0.73877,7.05482 0.82703,11.18499 0.3397,15.8954 -2.52509,24.40667 -14.52364,47.05409 -31.63098,59.7039 -5.01924,3.7114 -17.04649,10.71706 -18.39897,10.71706 -0.23948,0 -0.43542,-51.85121 -0.43542,-115.22492 z"
           id="path11"
           transform="translate(-2.1799,3.063)" />
      </g>
      <path
         id="path3770"
         stroke-linejoin="round"
         d="m59.93 64.641c1.586-63.023 8.701-33.698-13.056 119.21-5.7017 30.115-2.8377 64.247 18.667 87.823 36.126 39.275 102.41 39.802 143.26 7.6621 23.415-19.996 33.624-53.063 28.994-83.191-3.4201-45.128-28.631-174.03-15.292-130.79 18.079 60.278 45.724 131.48 38.065 195.74-4.8332 40.553-30.109 79.675-68.993 95.513-25.813 10.513-54.395 13.317-81.399 5.5884-33.155-9.48-64.619-30.84-77.091-63.95-31.133-86.27 9.116-157.42 26.841-233.6z"
         stroke="#483737"
         stroke-linecap="round"
         stroke-width="3"
         fill="#a4774d" />
      <path
         id="path2989"
         stroke-linejoin="round"
         d="m61.332 58.063c-3.681 20.37-35.244 21.714-43.151 3.049-8.7755-20.717 10.001-44.799 32.185-42.486 18.742 1.954 32.694 19.264 30.448 38.357-5.422 46.087-28.101 87.547-33.94 133.42-5.7017 30.115-2.8377 64.247 18.667 87.823 36.126 39.275 102.41 39.802 143.26 7.6621 23.415-19.996 33.624-53.063 28.994-83.191-4.1693-50.919-32.99-96.24-37.495-146.88-1.826-20.526 17.982-38.547 38.978-37.078 20.12 1.4073 33.536 24.706 23.432 42.285-6.3061 10.971-21.448 19.169-32.626 10.716-7.901-2.9881-11.735-20.712-6.6459-4.051 18.079 60.278 44.789 121.41 37.13 185.67-4.8332 40.553-30.109 79.675-68.993 95.513-25.813 10.513-54.395 13.317-81.399 5.5884-33.135-9.49-63.452-31.31-77.071-63.96-16.473-39.48-13.298-83.48-2.844-123.83 9.449-36.47 22.733-71.84 31.087-108.61z"
         stroke="#483737"
         stroke-linecap="round"
         stroke-width="3"
         fill="#decd87" />
      <path
         id="path2987"
         stroke-linejoin="round"
         d="m104.05 107.4c-2.6615-9.3443 4.6627-18.274 13.624-20.139 12.521-2.605 24.025 7.1646 26.034 19.266 2.6025 15.678-9.6659 29.804-24.907 31.929-18.828 2.6256-35.597-12.167-37.825-30.548-2.6627-21.975 14.667-41.399 36.19-43.72 25.12-2.7083 47.207 17.167 49.615 41.831 0.081 0.83003 0.14067 1.6622 0.17892 2.4952"
         transform="matrix(.33148 .19065 -.17781 .35541 25.206 -11.826)"
         stroke="#483737"
         stroke-width="7.7022"
         fill="none" />
      <path
         id="path2991"
         stroke-linejoin="round"
         d="m104.05 107.4c-2.6615-9.3443 4.6627-18.274 13.624-20.139 12.521-2.605 24.025 7.1646 26.034 19.266 2.6025 15.678-9.6659 29.804-24.907 31.929-18.828 2.6256-35.597-12.167-37.825-30.548-2.6627-21.975 14.667-41.399 36.19-43.72 25.12-2.7083 47.207 17.167 49.615 41.831 0.081 0.83003 0.14067 1.6622 0.17892 2.4952"
         transform="matrix(-.33148 .19065 .17781 .35541 257.03 -9.742)"
         stroke="#483737"
         stroke-width="7.7022"
         fill="none" />
    </g>
    <g
       id="g3853"
       stroke-width="1px"
       transform="matrix(-1 0 0 1 301.55 -3)"
       fill="#fae698">
      <path
         id="path3855"
         stroke="#a4774d"
         d="m75 310.5c20.835 10.748 38.495 24.672 64.75 30 13.413 3.123 25.594 6.9186 31.75 14-2.3878 0.6378-3.7942 0.29415-8 2.75-4.8316-8.6445-20.299-11.953-40.826-19.083-16.75-5.82-35.292-17.15-47.67-27.67z" />
      <path
         id="path3857"
         stroke="#966d4a"
         d="m54.055 284.03c2.5147 17.837 13.193 24.523 24.547 28.944-2.1838-13.752-12.381-23.419-24.547-28.944z" />
      <path
         id="path3859"
         stroke="#966d4a"
         d="m80.552 295.21c-0.19793 15.143 7.8031 22.065 16.655 27.19-0.05059-11.706-7.2712-21.043-16.655-27.19z" />
      <path
         id="path3861"
         stroke="#966d4a"
         d="m97.922 306.06c0.40525 15.139 8.6755 21.736 17.724 26.506-0.51673-11.695-8.1034-20.737-17.724-26.506z" />
      <path
         id="path3863"
         stroke="#966d4a"
         d="m114.94 315.56c2.6217 14.916 11.77 20.228 21.421 23.619-2.2268-11.493-11.058-19.324-21.421-23.619z" />
      <path
         id="path3865"
         stroke="#966d4a"
         d="m104.73 349.76c14.346 4.8536 23.395-0.62581 30.999-7.4679-11.153-3.5584-22.26 0.43442-30.999 7.4679z" />
      <path
         id="path3867"
         stroke="#966d4a"
         d="m82.479 337.91c13.527 6.8102 23.253 2.6489 31.738-3.0638-10.546-5.0816-22.102-2.6797-31.738 3.0638z" />
      <path
         id="path3869"
         stroke="#966d4a"
         d="m63.92 322.11c11.935 9.322 22.287 7.1414 31.725 3.1968-9.3498-7.0444-21.153-6.9468-31.725-3.1968z" />
    </g>
    <g
       id="g3843"
       stroke-width="1px"
       transform="translate(-5,-3)"
       fill="#fae698">
      <path
         id="path3833"
         stroke="#a4774d"
         d="m75 310.5c20.835 10.748 38.495 24.672 64.75 30 13.413 3.123 25.594 6.9186 31.75 14-2.3878 0.6378-3.7942 0.29415-8 2.75-4.8316-8.6445-20.299-11.953-40.826-19.083-16.75-5.82-35.292-17.15-47.67-27.67z" />
      <path
         id="path3785"
         stroke="#966d4a"
         d="m54.055 284.03c2.5147 17.837 13.193 24.523 24.547 28.944-2.1838-13.752-12.381-23.419-24.547-28.944z" />
      <path
         id="path3787"
         stroke="#966d4a"
         d="m80.552 295.21c-0.19793 15.143 7.8031 22.065 16.655 27.19-0.05059-11.706-7.2712-21.043-16.655-27.19z" />
      <path
         id="path3789"
         stroke="#966d4a"
         d="m97.922 306.06c0.40525 15.139 8.6755 21.736 17.724 26.506-0.51673-11.695-8.1034-20.737-17.724-26.506z" />
      <path
         id="path3791"
         stroke="#966d4a"
         d="m114.94 315.56c2.6217 14.916 11.77 20.228 21.421 23.619-2.2268-11.493-11.058-19.324-21.421-23.619z" />
      <path
         id="path3793"
         stroke="#966d4a"
         d="m104.73 349.76c14.346 4.8536 23.395-0.62581 30.999-7.4679-11.153-3.5584-22.26 0.43442-30.999 7.4679z" />
      <path
         id="path3795"
         stroke="#966d4a"
         d="m82.479 337.91c13.527 6.8102 23.253 2.6489 31.738-3.0638-10.546-5.0816-22.102-2.6797-31.738 3.0638z" />
      <path
         id="path3797"
         stroke="#966d4a"
         d="m63.92 322.11c11.935 9.322 22.287 7.1414 31.725 3.1968-9.3498-7.0444-21.153-6.9468-31.725-3.1968z" />
    </g>
    <g
       id="g3983"
       stroke="#966d4a"
       transform="translate(0,3)">
      <g
         id="g3944">
        <path
           id="path3873"
           d="m106.07 53.926c-1.2358 3.2264-1.8108 4.7424-4.0444 4.7424-2.2337 0-2.5839-1.615-4.0444-4.7424-0.42389-0.9077 0.40266-1.8862 1.6716-1.5401-0.06928-1.3801 1.3304-2.7584 2.3729-2.7584 1.008 0 2.0423 1.069 2.0764 2.5224 1.4228-0.44774 2.3345 0.81917 1.968 1.776z"
           fill="url(#linearGradient3997)" />
        <path
           id="path3928"
           d="m116.07 53.926c-1.2358 3.2264-1.8108 4.7424-4.0444 4.7424-2.2337 0-2.5839-1.615-4.0444-4.7424-0.42389-0.9077 0.40266-1.8862 1.6716-1.5401-0.0693-1.3801 1.3304-2.7584 2.3729-2.7584 1.008 0 2.0423 1.069 2.0764 2.5224 1.4228-0.44774 2.3345 0.81917 1.968 1.776z"
           fill="url(#linearGradient3999)" />
        <path
           id="path3932"
           d="m126.07 53.926c-1.2358 3.2264-1.8108 4.7424-4.0444 4.7424-2.2337 0-2.5839-1.615-4.0444-4.7424-0.42389-0.9077 0.40266-1.8862 1.6716-1.5401-0.0693-1.3801 1.3304-2.7584 2.3729-2.7584 1.008 0 2.0423 1.069 2.0764 2.5224 1.4228-0.44774 2.3345 0.81917 1.968 1.776z"
           fill="url(#linearGradient4001)" />
        <path
           id="path3936"
           d="m136.07 53.926c-1.2358 3.2264-1.8108 4.7424-4.0444 4.7424-2.2337 0-2.5839-1.615-4.0444-4.7424-0.42389-0.9077 0.40266-1.8862 1.6716-1.5401-0.0693-1.3801 1.3304-2.7584 2.3729-2.7584 1.008 0 2.0423 1.069 2.0764 2.5224 1.4228-0.44774 2.3345 0.81917 1.968 1.776z"
           fill="url(#linearGradient4003)" />
        <path
           id="path3940"
           d="m146.07 53.926c-1.2358 3.2264-1.8108 4.7424-4.0444 4.7424-2.2337 0-2.5839-1.615-4.0444-4.7424-0.42389-0.9077 0.40266-1.8862 1.6716-1.5401-0.0693-1.3801 1.3304-2.7584 2.3729-2.7584 1.008 0 2.0423 1.069 2.0764 2.5224 1.4228-0.44774 2.3345 0.81917 1.968 1.776z"
           fill="url(#linearGradient4005)" />
      </g>
      <g
         id="g3961"
         transform="translate(50)">
        <path
           id="path3963"
           d="m106.07 53.926c-1.2358 3.2264-1.8108 4.7424-4.0444 4.7424-2.2337 0-2.5839-1.615-4.0444-4.7424-0.42389-0.9077 0.40266-1.8862 1.6716-1.5401-0.06928-1.3801 1.3304-2.7584 2.3729-2.7584 1.008 0 2.0423 1.069 2.0764 2.5224 1.4228-0.44774 2.3345 0.81917 1.968 1.776z"
           fill="url(#linearGradient3997)" />
        <path
           id="path3965"
           d="m116.07 53.926c-1.2358 3.2264-1.8108 4.7424-4.0444 4.7424-2.2337 0-2.5839-1.615-4.0444-4.7424-0.42389-0.9077 0.40266-1.8862 1.6716-1.5401-0.0693-1.3801 1.3304-2.7584 2.3729-2.7584 1.008 0 2.0423 1.069 2.0764 2.5224 1.4228-0.44774 2.3345 0.81917 1.968 1.776z"
           fill="url(#linearGradient3999)" />
        <path
           id="path3967"
           d="m126.07 53.926c-1.2358 3.2264-1.8108 4.7424-4.0444 4.7424-2.2337 0-2.5839-1.615-4.0444-4.7424-0.42389-0.9077 0.40266-1.8862 1.6716-1.5401-0.0693-1.3801 1.3304-2.7584 2.3729-2.7584 1.008 0 2.0423 1.069 2.0764 2.5224 1.4228-0.44774 2.3345 0.81917 1.968 1.776z"
           fill="url(#linearGradient4001)" />
        <path
           id="path3969"
           d="m136.07 53.926c-1.2358 3.2264-1.8108 4.7424-4.0444 4.7424-2.2337 0-2.5839-1.615-4.0444-4.7424-0.42389-0.9077 0.40266-1.8862 1.6716-1.5401-0.0693-1.3801 1.3304-2.7584 2.3729-2.7584 1.008 0 2.0423 1.069 2.0764 2.5224 1.4228-0.44774 2.3345 0.81917 1.968 1.776z"
           fill="url(#linearGradient4003)" />
        <path
           id="path3971"
           d="m146.07 53.926c-1.2358 3.2264-1.8108 4.7424-4.0444 4.7424-2.2337 0-2.5839-1.615-4.0444-4.7424-0.42389-0.9077 0.40266-1.8862 1.6716-1.5401-0.0693-1.3801 1.3304-2.7584 2.3729-2.7584 1.008 0 2.0423 1.069 2.0764 2.5224 1.4228-0.44774 2.3345 0.81917 1.968 1.776z"
           fill="url(#linearGradient4005)" />
      </g>
    </g>
  </g>
  <metadata
     id="metadata1">
    <rdf:RDF>
      <cc:Work>
        <dc:format>image/svg+xml</dc:format>
        <dc:type
           rdf:resource="http://purl.org/dc/dcmitype/StillImage" />
        <cc:license
           rdf:resource="http://creativecommons.org/licenses/publicdomain/" />
        <dc:publisher>
          <cc:Agent
             rdf:about="http://openclipart.org/">
            <dc:title>Openclipart</dc:title>
          </cc:Agent>
        </dc:publisher>
        <dc:title>harp</dc:title>
        <dc:date>2013-08-23T12:17:53</dc:date>
        <dc:description>harp</dc:description>
        <dc:source>https://openclipart.org/detail/182170/harp-by-crisg-182170</dc:source>
        <dc:creator>
          <cc:Agent>
            <dc:title>crisg</dc:title>
          </cc:Agent>
        </dc:creator>
        <dc:subject>
          <rdf:Bag>
            <rdf:li>harfa</rdf:li>
            <rdf:li>harp</rdf:li>
            <rdf:li>instruments</rdf:li>
            <rdf:li>lira</rdf:li>
            <rdf:li>lode</rdf:li>
            <rdf:li>music</rdf:li>
            <rdf:li>song</rdf:li>
            <rdf:li>worship</rdf:li>
          </rdf:Bag>
        </dc:subject>
      </cc:Work>
      <cc:License
         rdf:about="http://creativecommons.org/licenses/publicdomain/">
        <cc:permits
           rdf:resource="http://creativecommons.org/ns#Reproduction" />
        <cc:permits
           rdf:resource="http://creativecommons.org/ns#Distribution" />
        <cc:permits
           rdf:resource="http://creativecommons.org/ns#DerivativeWorks" />
      </cc:License>
    </rdf:RDF>
  </metadata>
</svg>
