<?xml version="1.0" encoding="UTF-8" standalone="no"?>
<svg
   xmlns:dc="http://purl.org/dc/elements/1.1/"
   xmlns:cc="http://creativecommons.org/ns#"
   xmlns:rdf="http://www.w3.org/1999/02/22-rdf-syntax-ns#"
   xmlns:svg="http://www.w3.org/2000/svg"
   xmlns="http://www.w3.org/2000/svg"
   xmlns:sodipodi="http://sodipodi.sourceforge.net/DTD/sodipodi-0.dtd"
   xmlns:inkscape="http://www.inkscape.org/namespaces/inkscape"
   width="132.29166mm"
   height="132.29167mm"
   viewBox="0 0 132.29166 132.29167"
   version="1.1"
   id="svg41"
   sodipodi:docname="icon.svg"
   inkscape:version="1.0.2 (e86c870879, 2021-01-15)">
  <sodipodi:namedview
     pagecolor="#ffffff"
     bordercolor="#666666"
     borderopacity="1"
     objecttolerance="10"
     gridtolerance="10"
     guidetolerance="10"
     inkscape:pageopacity="0"
     inkscape:pageshadow="2"
     inkscape:window-width="1600"
     inkscape:window-height="797"
     id="namedview13"
     showgrid="false"
     inkscape:zoom="0.57638187"
     inkscape:cx="-71.105167"
     inkscape:cy="267.78992"
     inkscape:window-x="0"
     inkscape:window-y="32"
     inkscape:window-maximized="1"
     inkscape:current-layer="svg41"
     inkscape:document-rotation="0" />
  <defs
     id="defs35" />
  <metadata
     id="metadata38">
    <rdf:RDF>
      <cc:Work
         rdf:about="">
        <dc:format>image/svg+xml</dc:format>
        <dc:type
           rdf:resource="http://purl.org/dc/dcmitype/StillImage" />
        <dc:title />
      </cc:Work>
    </rdf:RDF>
  </metadata>
  <g
     id="g23"
     transform="translate(-42.333333,-76.729167)"
     style="fill:#645a3c;fill-opacity:1;stroke:#000000;stroke-opacity:1;stroke-width:0.79374999;stroke-miterlimit:4;stroke-dasharray:none;stroke-dashoffset:0;stroke-linejoin:miter;stroke-linecap:butt;paint-order:normal">
    <g
       id="layer1"
       transform="matrix(1.0354861,0,0,0.9401754,-2.4079883,3.2980835)"
       style="fill:#645a3c;fill-opacity:1;stroke:#000000;stroke-opacity:1;stroke-width:0.804465;stroke-miterlimit:4;stroke-dasharray:none;stroke-dashoffset:0;stroke-linejoin:miter;stroke-linecap:butt;paint-order:normal">
      <g
         id="g92"
         style="fill:#645a3c;fill-opacity:1;stroke:#000000;stroke-opacity:1;stroke-width:0.804465;stroke-miterlimit:4;stroke-dasharray:none;stroke-dashoffset:0;stroke-linejoin:miter;stroke-linecap:butt;paint-order:normal">
        <path
           style="fill:#645a3c;stroke:#000000;stroke-width:0.804465;fill-opacity:1;stroke-opacity:1;stroke-miterlimit:4;stroke-dasharray:none;stroke-dashoffset:0;stroke-linejoin:miter;stroke-linecap:butt;paint-order:normal"
           d="m 83.777464,96.75181 c 0.190148,-2.6936 0.579966,-7.70153 -2.469444,-8.81945 0.388054,2.18444 3.266017,6.86453 0.301977,8.443 -1.51765,0.80807 -4.324104,-0.38425 -5.946423,-0.58089 -3.604083,-0.43684 -7.880596,0.99766 -9.920499,4.13368 -2.976033,4.57514 -0.536892,13.05355 1.314204,17.63754 1.42494,3.52884 3.77345,6.23747 0.845185,9.525 -0.193569,-4.43971 -2.644598,-8.48572 -5.215996,-11.99303 -0.798335,-1.08903 -2.23647,-1.94416 -2.738366,-3.20799 -0.908227,-2.28667 0.642549,-4.20966 0.382164,-6.26617 -0.159244,-1.25759 -1.467344,-0.98101 -2.305579,-0.75781 l 0.705554,2.46945 c -2.284905,0.21611 -6.026573,-3.47282 -7.408333,-1.41111 h 1.411113 v 0.70555 h -1.411113 l 1.411113,5.99722 -4.93889,-3.52777 0.352777,5.64444 c 3.126883,-0.23319 2.121043,1.95862 3.387868,3.86644 1.336251,2.01225 3.502834,2.88185 5.784355,2.48356 v -1.41111 h 1.41111 l -1.058333,-3.88056 c 4.360688,-1.21144 8.370395,5.98664 9.008358,9.525 0.554461,3.07517 -0.461433,6.10694 -0.536506,9.17222 -0.07906,3.22721 0.809379,7.11976 0.164677,10.23056 -1.096714,5.29202 -3.697039,10.01606 -3.69764,15.52222 l -3.527776,-2.82222 c 1.660771,-0.0787 1.372658,-1.12078 1.058333,-2.46945 1.802659,-0.30056 1.753621,-1.68239 -0.0068,-2.23767 -1.307854,-0.41275 -2.648445,0.0148 -3.873749,0.47378 l 1.751084,-4.58611 -1.887995,-3.42723 1.548024,-3.27554 -2.116666,0.35277 -1.058334,-1.41111 -0.352779,1.41111 -0.705554,-0.35277 c -0.852101,1.58856 -2.35571,4.51837 -3.880556,1.76388 h 2.469443 v -0.35277 l -1.058333,-0.35278 1.058333,-2.11667 c -2.094619,-0.66251 -3.247673,-0.7567 -4.233333,1.41111 1.450163,-0.49812 2.166866,-0.8322 3.527777,0 -0.486797,0.14464 -0.978959,0.24377 -1.419823,0.51365 -3.798189,2.32516 1.915017,2.61655 3.183712,3.71969 l -1.41111,-0.35278 c 0.942129,2.78341 5.229754,5.2204 2.469444,8.11389 v 0.35277 h 1.411113 l 2.469443,3.88056 -4.93889,-2.11667 -0.705556,2.11667 0.705556,-3.175 -2.116666,1.05833 c 0.721466,-3.30799 0.525322,-5.79543 -3.175,-6.35 0.192087,2.29271 -0.42104,5.08565 1.41111,6.70278 l -0.705554,-2.46944 2.469444,0.70555 -0.705557,2.82222 1.411113,-0.35277 c 0.09306,3.06987 5.32398,5.88821 5.644444,1.76389 5.978242,0.66569 7.454019,10.01359 6.702777,14.81666 -0.956628,-0.90699 -2.101919,-2.18369 -3.527777,-2.22532 -0.785461,-0.0229 -1.560124,0.61524 -2.337152,0.34749 -3.758107,-1.29505 -4.716568,-4.34587 -9.304515,-3.76661 l 0.705557,2.11666 c -6.36179,0.0226 0.240487,3.21769 2.469443,4.23334 l 1.76389,-1.41111 -0.35278,2.46944 1.411113,0.35278 c -0.63627,1.39347 -1.69464,2.91289 -2.822223,1.05833 h 1.76389 c -1.058439,-1.04598 -1.828872,-0.82832 -3.175,-0.35278 0.438536,1.62984 1.106733,2.25425 2.82222,2.11667 l 2.116667,3.52778 c -1.771227,0.0557 -2.555097,-0.74542 -2.82222,-2.46945 h -0.35278 c -0.472863,2.5774 1.17574,3.47099 3.52778,3.52778 1.758912,6.11505 6.509631,-2.66206 0,-2.11667 l -1.058334,-3.175 7.003555,1.23896 2.848081,-2.05705 3.581683,3.99168 8.086124,7.55968 3.815999,4.43618 -2.052109,8.46666 1.763887,-1.05833 v 1.76389 l -1.41111,0.70556 0.705557,-1.41112 c -4.534255,2.44899 -7.421354,6.33307 -10.560474,10.23056 -1.658302,2.05881 -3.738316,4.02484 -4.256193,6.70278 l 5.99722,-0.35278 v -0.35278 l -1.058333,-1.05833 1.76389,-0.35278 0.352777,-0.70556 c 0.18302,-1.75189 1.13538,-2.24225 2.822223,-2.11666 v -0.35278 l -1.411113,-1.05833 h 1.411113 v -0.35278 l -2.822223,-0.35278 v 0.35278 l 0.705556,1.41111 h -3.527777 l 1.058331,-1.05833 1.058333,0.70555 -0.705553,-1.05833 h 0.705553 v -0.35278 l -0.705553,-0.35278 1.058333,-0.35277 -0.35278,-0.70556 4.113284,-0.18662 3.295052,-2.28282 v -0.35278 h -0.705556 v -0.35278 l 1.76389,0.35278 v -0.35278 l -0.35278,-0.70555 v -0.35278 l -4.58611,1.05833 v -0.35278 h 1.41111 v -0.35277 l -0.705554,-0.35278 3.175,-1.41111 -1.058333,0.35277 v 0.35278 l 3.527777,1.41111 -1.058334,-0.35277 1.058334,1.76388 1.41111,-1.41111 -3.175,-2.11666 0.705556,-0.70556 c 0.375357,-1.3716 1.208969,-1.3215 2.469444,-1.05833 v -0.35278 l -1.763887,-0.70556 v -0.35277 l 2.116667,0.35277 c -0.890765,-1.20932 -2.11314,-1.32256 -3.52778,-1.05833 1.52753,-1.10137 2.488848,-0.61736 4.233333,-0.35278 v -0.35277 l -2.116666,-0.70556 v -0.35278 h 1.058333 v -2.46944 l 2.469446,0.70555 -0.352779,-1.05833 1.058333,0.35278 -0.352777,-3.175 -1.41111,-0.70556 0.705554,-2.11666 1.763889,0.70555 -1.058333,1.76389 2.469444,-2.82222 1.763889,1.05833 0.705557,-3.88055 -1.411113,0.35277 v -0.35277 l 1.76389,-0.70556 1.058333,1.41111 h 0.352781 c 0.90734,-1.19098 1.4806,-1.38994 2.82222,-0.70555 l -0.35278,-1.41111 2.46945,2.82222 c 1.01529,-1.06221 1.81151,-1.24566 3.175,-0.70556 h -1.05834 l -2.11666,1.05833 -1.41111,0.35278 0.35277,1.05834 -1.41111,-0.70556 -2.46944,1.41111 -1.058337,-2.11667 h -0.352777 l 0.705556,2.46945 -1.058333,-0.35278 1.763891,2.46945 c -0.264233,-1.75613 1.08761,-2.07539 2.46944,-2.82223 l -0.70555,2.82223 h -0.35278 v -1.41112 l -4.586114,2.11667 1.76389,-0.35278 c -1.060802,1.77554 -2.373136,2.13749 -4.233334,2.82223 l 1.058334,1.76388 h 0.352777 l 0.352779,-2.11666 h 0.705554 l 0.352779,0.35278 -2.116666,6.70277 -1.411113,-2.11666 -1.763887,-0.35278 v 3.88055 l 1.41111,1.41112 -1.41111,0.35277 -0.705557,-1.76389 h -0.352776 l 1.058333,2.11667 h -1.058333 v 0.35278 l -0.35278,0.70555 v 1.76389 l -0.352777,-1.05833 h -1.41111 v 0.35278 l 0.705554,0.70555 -1.058334,-0.35278 0.35278,1.05834 -1.058333,-0.35278 v 0.35278 l 1.058333,0.35278 -2.822223,2.46944 v 0.35278 l 1.41111,1.41111 h -0.705554 l 1.41111,2.46944 -0.705556,0.70556 2.116667,0.35278 c -0.419452,-1.3275 -1.637946,-2.806 -1.535642,-4.23334 0.23354,-3.24802 6.090004,-6.49781 7.847542,-9.17222 1.591733,-2.42217 1.363133,-5.29449 2.663473,-7.76075 1.091848,-2.07081 3.098444,-2.55165 4.709234,-4.0185 1.43333,-1.30563 2.23555,-3.0487 3.95428,-4.09398 2.583044,-1.57057 10.402014,0.4011 11.288894,-2.11843 l -1.41111,0.70555 -0.35278,-2.82222 -1.05833,0.35278 c 0.74718,-5.67937 -6.97583,-5.2317 -10.583334,-3.88056 l -2.10291,-8.81944 1.39735,-7.05556 1.05833,0.35278 -1.41111,-2.46944 c 0.93134,1.10031 1.85844,2.04787 1.41111,3.52777 7.222784,9.39695 13.320194,19.94676 19.605984,29.98611 2.63984,4.21676 5.50721,10.74526 9.38671,13.88604 6.58178,5.32801 14.44484,-4.11903 16.70897,-9.6527 0.49142,-1.20156 1.5942,-2.93582 1.59491,-4.23334 0.001,-2.60702 -3.83293,-5.11951 -4.61045,-7.76111 l -1.41112,-0.70555 c 2.11808,-0.5782 6.29532,-1.41288 5.64445,-4.23334 h 1.41111 l -0.70555,1.05834 c 2.05175,0 6.55108,-0.75706 7.71983,1.49049 0.63465,1.22061 -0.0155,3.1182 0.39405,4.50673 l 1.41111,-0.70556 1.76389,1.76389 v 0.35278 l -1.41111,-0.35278 c -1.79458,2.34668 -2.85115,3.13196 -1.41111,5.99722 l 3.52778,-3.52777 h -0.35278 l -1.05833,0.70555 -0.35278,-1.76389 4.23333,-1.05833 -0.70555,2.46944 2.46944,-2.11666 -1.76389,2.46944 v 0.35278 c 1.75331,-0.81245 6.1976,-4.61892 6.70278,-0.35278 -2.41124,-1.48801 -4.29719,-0.67415 -5.13362,2.11667 -0.34467,1.149 -0.67663,3.52249 0.9144,3.96804 1.1557,0.32385 1.70039,-1.34302 2.82328,-1.385 1.57303,-0.0593 2.43169,1.27353 3.51261,-0.46637 l -2.11667,0.35277 -1.05833,-3.52777 1.76388,2.11666 c 1.10843,-0.2106 6.42691,-1.94557 4.02026,-3.81599 -0.86007,-0.66852 -1.98155,-0.0212 -2.93017,-0.28223 -1.58574,-0.43673 -3.32634,-1.65135 -4.97064,-2.25178 v -0.35278 l 3.52778,-1.05833 c -0.72143,-2.4003 -2.37914,-2.73473 -3.52778,-0.35278 -1.70674,-0.29774 -2.80494,-0.23001 -2.46944,1.76389 -3.29636,-0.26035 -5.00663,-0.97084 -6.70278,-3.88055 2.68675,-0.61595 6.15209,-3.17147 3.87068,-6.47912 -1.10773,-1.60584 -4.17548,-2.87549 -5.98735,-3.39866 0.88371,-3.75602 -3.02789,-4.42807 -3.175,-1.05833 l 2.82222,-1.41111 -0.70555,0.70555 0.35278,1.76389 -1.05834,-1.05833 -2.11666,1.05833 v -1.76389 l -7.76111,5.64445 c 0.21272,-4.95688 1.65135,-9.91271 2.37349,-14.81667 0.60642,-4.1148 0.73448,-9.15917 2.22391,-13.04748 1.46261,-3.81847 6.7691,-5.03309 7.04426,-0.005 l -1.76389,-2.11666 h -0.35277 c -0.35243,1.24213 -1.84186,2.47791 -1.51942,3.82199 0.56445,2.35268 3.69358,8.54287 5.39997,3.58634 l 2.11667,2.82222 -3.175,-0.35278 c -0.34678,1.669 0.41839,4.52156 2.45427,4.8768 1.76918,0.30869 1.32116,-1.96215 0.72073,-2.76013 v -0.35278 c 1.17757,-2.08209 -0.99872,-4.43371 -2.82222,-5.29166 l -1.76389,2.46944 c -0.73801,-2.07257 -0.39088,-3.6195 0.35277,-5.64444 l 8.11389,5.64444 c 1.44392,-3.68794 -4.54942,-4.0072 -7.05555,-5.29167 l 0.35278,-2.11666 c 3.58422,2.69451 3.79447,0.85231 1.76388,-2.46945 3.70593,1.10102 2.4885,5.56296 6.35,4.93889 l 1.41112,2.46945 v -1.76389 l 2.11666,3.175 c -5.70018,0.50165 -2.82645,6.63822 0.70556,8.11388 l 0.35277,-2.46944 h 0.70556 l 1.41111,1.41111 c 0.79834,-3.68264 -2.72309,-8.24512 -4.58611,-11.28889 1.46791,0.0173 2.42993,0.06 3.175,1.41111 2.00942,0.5962 2.38125,2.30647 2.46944,4.23334 l -1.41111,-1.05834 0.70556,2.11667 c 3.11926,-1.63724 0.68439,-4.64079 -0.70556,-6.70278 l 1.05834,0.35278 v -0.35278 l -1.76389,-1.41111 c 2.07786,-0.42721 3.2131,0.51294 3.88055,2.46945 l -1.76389,-0.70556 2.46945,2.11667 c -0.0579,-6.40821 -7.76358,-4.07211 -11.28889,-8.11389 l 2.82222,-0.35278 c 0.83573,2.94146 3.87844,1.89266 6.35,2.46945 l 0.35278,-1.41112 -2.46945,-1.05833 -1.41111,0.70556 -0.35277,-1.76389 3.52777,1.05833 c -2.17311,-2.70051 -3.10973,-5.75239 -7.05555,-4.58611 l 0.35278,1.76389 c -1.97062,0.0917 -2.93829,-0.32702 -3.88056,-2.11667 l 1.05834,-0.35277 c -0.9712,-1.66864 -2.37702,-2.03165 -4.23334,-2.11667 1.13842,-1.49507 1.43545,-2.47967 -0.35278,-3.52778 2.23979,-1.79282 4.15467,0.84067 6.35,1.76389 l 1.41112,-3.88056 v 2.46945 l 1.76388,-2.11667 h 0.70556 l -0.35278,2.11667 v 0.35278 l 3.175,1.05833 v -0.35278 l -3.52778,-4.58611 0.35278,1.05833 -2.82222,-2.11666 -2.46944,1.05833 c -0.42228,1.46897 -1.22944,2.28177 -2.46945,1.05833 l -4.58611,0.70556 c 0.0794,1.46614 1.91982,3.9691 1.15641,5.18795 -1.36349,2.17664 -4.77591,-1.66687 -5.38974,1.86761 1.72508,-0.62759 2.6998,-0.74578 4.23333,0.35277 l -3.175,0.35278 0.35278,1.41111 -1.41111,-0.35278 c -0.58985,2.30223 -0.33408,3.77437 -2.82222,4.93889 0.70061,-8.87906 2.61126,-17.70062 4.07987,-26.45833 0.88441,-5.27508 0.99695,-11.13155 2.70334,-16.22097 0.74189,-2.21237 3.16371,-1.53955 4.8581,-2.50782 2.65395,-1.51659 3.94758,-4.80363 4.16842,-7.72954 0.89218,-11.81714 -14.01516,-15.15907 -22.86529,-14.00901 -10.36814,1.34732 -18.11867,8.98387 -27.51667,12.79091 -5.14244,2.08315 -10.099324,2.23816 -15.522224,1.93618 -3.175001,-0.17681 -6.715126,-0.58162 -9.525001,-2.12919 v -0.35278 c 2.854325,-1.52752 4.440767,-4.18916 7.055561,-6.04647 1.35748,-0.96431 2.81163,-2.07818 3.88055,-0.30353 -2.07222,0.69071 -0.86713,2.78924 0.70732,3.50273 1.21355,0.55009 2.89278,-0.15494 4.231574,0.025 l -2.116674,-3.52778 v -0.35277 -3.175 c 2.519194,0.85703 3.269554,3.79102 5.634224,4.61549 1.81857,0.63419 1.97273,-1.71432 0.95602,-2.67031 -1.24883,-1.17482 -2.86808,-0.66449 -3.76801,-2.29796 h 1.76388 V 86.5215 l -1.05833,-2.11667 1.41111,2.11667 3.175,0.35278 c -0.15804,-3.39976 -2.54317,-6.07936 -5.99722,-4.93889 v 0.70555 l 1.41111,0.35278 v 0.70556 l -1.41111,3.175 h -0.70556 l -0.352774,-1.05834 -2.46945,1.41112 1.05834,2.46944 c -5.85929,0.23043 -0.0991,-4.3616 0.70555,-5.64444 l 1.411114,0.35277 c -0.934514,-2.13984 -2.831394,-4.12717 -5.291664,-3.52777 0.58031,1.79825 0.36971,3.9129 -1.76389,2.11666 1.35114,-1.84884 -3.953586,-7.09478 -4.776263,-3.8585 -0.245885,0.96801 1.916994,4.71159 2.807407,5.22118 1.088316,0.6229 2.330096,0.0174 2.984146,1.47288 0.57538,1.28055 -0.40852,2.32618 -1.38748,2.99427 -3.329512,2.272 -5.627154,6.09949 -9.152814,7.92851 m 8.819444,-13.05278 c -1.346201,-0.72457 -1.62948,-1.69351 -1.763888,-3.175 h -1.411113 v -1.76389 c 2.373141,0.40125 3.123141,2.78109 3.175001,4.93889 m 5.99722,0 -3.175,1.41111 1.41111,-1.05833 -0.70555,-2.46945 c 1.38712,0.28649 1.98931,0.78112 2.46944,2.11667 m 4.938894,-1.76389 v 1.05833 l -1.76389,-0.35278 1.76389,-0.70555 m 2.46945,3.88055 -2.82223,-2.11666 c 1.58009,0.12019 2.29341,0.61157 2.82223,2.11666 m 44.44999,11.64167 v -0.35278 c -2.44122,-1.01501 -4.73146,-2.14146 -7.40834,-2.40929 -10.75266,-1.07583 -19.69135,6.31363 -29.28055,9.79858 -6.356,2.30988 -13.11487,2.50874 -19.755564,1.6825 -6.529209,-0.81238 -18.820655,-4.80177 -23.849786,1.19172 -1.831938,2.1832 -1.005205,4.65264 -0.06724,7.0226 1.537865,3.88585 5.848067,9.99243 5.572583,14.11111 1.537758,0.94051 2.102908,2.71251 2.972858,4.23333 1.920524,3.35704 7.365648,9.12354 6.904922,13.05278 3.397953,1.61925 5.414785,6.87952 7.556853,9.87778 1.05657,1.47849 2.16641,2.70051 1.96815,4.58611 3.40995,1.00295 5.041544,6.11681 5.997224,9.17222 h -1.763894 v -0.35278 l -0.35278,-2.11666 -1.05833,0.70555 h -0.35278 l 1.05833,-1.05833 -3.175,-3.52778 c -0.0286,-1.26823 -0.44061,-1.87289 -1.76389,-1.76389 0.54505,1.31092 1.82634,3.07728 1.43793,4.55436 -0.51753,1.96991 -2.69946,3.14855 -3.15101,5.29167 -0.797283,3.78495 3.06281,8.47901 0.40675,11.92036 -2.159002,2.79753 -6.572603,6.26992 -10.335333,5.94501 -4.303464,-0.37183 -9.797978,-6.20959 -12.272645,-9.36695 -0.98072,-1.25131 -2.374794,-2.88573 -2.330061,-4.58612 0.05376,-2.04434 2.368796,-4.55471 3.666596,-5.99722 l -3.880556,4.58611 H 66.84413 l -1.76389,-3.175 h 0.352779 v 0.70556 h 0.352777 c -0.08756,-2.03941 -1.607537,-8.02287 1.431536,-8.64588 2.32029,-0.47554 3.183115,2.43064 5.271241,0.17921 l 6.70278,1.05834 0.352777,-3.175 h 0.352776 l 2.822223,2.46944 2.469444,4.58611 h 0.705556 l 0.352777,-0.35278 v -0.70555 l -1.41111,-0.35278 0.352777,-1.41111 -1.763887,0.35278 -0.35278,-2.11667 1.76389,0.35278 c -1.945217,-2.52166 -2.993673,-3.70664 -5.997223,-4.58611 l 2.469446,-1.41111 v -0.35278 l -3.527779,-2.11667 3.527779,-0.35278 v -0.35277 l -3.527779,-0.35278 v -0.35278 c 2.391833,-0.56938 6.125633,-0.69779 7.055556,2.11667 h 0.352777 l 0.35278,-1.41111 -3.175,-2.11667 h 2.82222 v -0.35278 l -2.116667,-2.46944 0.705557,-1.05834 h -2.116667 l 1.76389,3.175 -2.469446,-0.35277 v 0.35277 l 0.705556,1.05834 c -1.316215,0.18239 -3.196166,0.48965 -3.527777,-1.05834 l -0.705556,2.11667 -1.76389,-0.70555 v -0.35278 l 1.058333,-1.05834 H 76.36913 l -1.058334,0.70556 v -2.82222 h 0.705557 l 0.352777,1.76389 3.175,-1.05834 -2.116667,-3.88055 h 1.76389 c -0.847725,-1.45627 -4.578104,-3.99662 -5.997223,-2.82222 h 1.41111 v 0.70555 h -1.41111 v 0.35278 l 1.41111,1.05833 c 1.45274,-0.52422 2.378146,-0.80645 3.527779,0.35278 l -3.527779,1.41111 v -1.76389 c -2.273901,1.50989 -3.974923,1.74167 -3.527777,4.93889 -6.201974,1.49543 1.876671,4.90397 0.705554,0 1.681234,0.18909 2.475441,0.79234 2.822223,2.46945 l -2.822223,1.76388 4.233336,-0.70555 c -0.745033,1.35114 -1.707269,1.39383 -3.175003,1.41111 l 4.93889,1.05833 -4.540639,1.05763 -2.867694,-2.46874 c -1.025949,1.56634 -3.130373,2.28424 -4.938888,2.46945 0.631225,-2.19463 2.494209,-2.65113 4.586111,-2.82223 v -0.35277 c -3.012686,0.002 -4.662665,0.35136 -5.291667,3.52777 l 5.644444,-1.41111 0.352776,3.175 h 0.35278 l 0.705554,-2.11666 c 1.389099,1.15781 1.368531,2.17734 1.058333,3.88055 l -7.408331,-1.76389 v 0.35278 l 3.527777,0.70556 v 0.70555 c -1.80975,0.58879 -4.033131,1.82669 -4.58611,-0.70555 h -0.352779 l 0.352779,2.11666 h -0.352779 c -0.531919,-1.26047 -1.162013,-2.86385 0,-3.88055 l 3.019038,-10.58334 0.258056,-14.81666 3.072906,-8.11389 c 2.606357,1.42981 4.130958,5.9496 5.644446,8.46667 3.522485,5.85822 7.348712,11.53724 11.044766,17.28611 1.70956,2.65924 3.174294,6.3754 5.888567,8.11389 l 0.35278,-1.05834 c -3.746503,-2.03658 -9.40012,-10.95586 -9.87778,-15.16944 -2.742496,-0.49071 -2.816931,-3.47521 -3.52778,-5.64445 l -0.705553,0.70556 c -1.088885,-1.77906 -2.823316,-3.84986 -2.469447,-5.99722 l -4.58611,-5.99722 -1.058333,-2.46945 c -0.340855,-6.83224 -8.702709,-16.73909 -2.244336,-23.43929 2.156071,-2.23682 6.504445,-2.04297 9.299892,-1.70864 7.024159,0.84007 14.086417,2.57478 21.166667,2.88618 18.205104,0.80066 31.091724,-19.63978 50.094444,-13.24332 3.17289,1.068 4.9075,3.1501 7.40834,5.16619 -1.5875,-1.99976 -2.96157,-3.64226 -5.29167,-4.80822 -16.03446,-8.02399 -27.22739,6.76684 -41.62778,10.09988 2.45392,-1.85712 5.76616,-2.99162 8.46667,-4.53301 10.8899,-6.21602 27.82323,-14.48503 38.28556,-2.47654 4.20406,4.82508 3.13867,16.65817 -5.47723,14.87819 -4.81859,-0.99554 -6.78744,-8.72963 -0.70555,-8.92697 m -47.27223,-8.11389 2.11667,2.11667 c -1.16452,-0.33426 -2.03517,-0.83566 -2.11667,-2.11667 m -3.527774,4.23334 -1.41111,-1.05834 h -0.35278 l -0.35278,1.76389 h -0.70556 l -0.35277,-1.76389 -1.05834,0.35278 c 0.80575,-2.65391 3.84599,-1.67474 4.23334,0.70556 M 68.25524,108.7465 h 0.352779 c 0.905614,-4.65123 4.441047,-5.67256 8.819444,-5.96565 7.487356,-0.50119 15.048443,2.43787 22.577777,2.43787 6.86259,0 13.52092,-1.47987 19.75556,-4.34223 7.81156,-3.58634 14.99764,-8.38486 23.98889,-7.99109 1.73567,0.076 9.42728,1.20456 8.02358,4.41921 -0.5708,1.30687 -2.89172,0.75071 -3.73945,2.01514 -1.71379,2.5558 0.69039,6.12602 3.47698,6.23108 6.89081,0.25975 8.29346,-6.94648 5.64445,-11.97377 h -0.35278 c 0.29669,1.6704 1.36349,3.21422 1.31692,4.93888 -0.0871,3.22873 -4.15713,8.15005 -7.66516,6.02961 -2.61196,-1.57871 -2.56998,-5.66766 1.05657,-4.6185 l -1.05833,2.46945 c 2.82857,-0.49117 2.66911,-6.00594 1.01141,-7.72411 -2.63701,-2.73279 -7.01463,-2.72171 -10.53641,-2.47487 -11.31147,0.79283 -20.62868,8.76272 -31.39723,11.44241 -10.118014,2.51778 -19.217217,-0.78884 -29.280554,-1.22953 -4.932751,-0.21604 -11.936412,-0.075 -11.994446,6.3361 m 68.43889,-13.05278 -9.525,59.26666 c -2.55058,-1.19909 -5.27014,-3.46075 -4.93889,-6.35 l 3.88056,0.70556 c -0.38065,-1.84044 -1.36137,-2.36996 -3.175,-2.46945 l 0.35278,-5.99722 c 0.82903,0.45015 1.57127,1.19839 2.47438,1.49684 4.10633,1.35749 2.0507,-6.7878 -1.76883,-2.20239 h -0.35277 l 7.05555,-43.03889 5.99722,-1.41111 m 6.70278,0 c -1.6831,20.60469 -9.80193,40.98007 -10.23055,61.73611 l -5.29167,-1.76389 7.08378,-45.15555 1.64888,-10.58334 1.00507,-3.87074 5.78449,-0.36259 m 4.23334,0.70556 c -0.58526,1.32186 -1.64959,2.44905 -1.97768,3.88055 -0.72037,3.14272 0.23072,6.5665 -0.35595,9.87778 -1.89371,10.68952 -3.77543,21.38574 -5.57354,32.10277 -0.81421,4.85352 -0.17921,14.08219 -6.20395,15.16945 l 6.0258,-35.63056 4.20476,-25.75277 3.88056,0.35278 m -63.50001,1.76389 v 0.35277 c -6.066859,-0.47882 -16.025141,-3.61572 -17.524024,5.29167 -0.363431,2.15981 -0.114863,4.51689 -0.114863,6.70278 -0.761225,-1.43182 -0.705062,-2.9941 -0.705557,-4.58611 -5.29e-4,-1.42928 -0.05771,-2.852 0.37211,-4.23334 2.514389,-8.08101 12.159967,-4.31045 17.972334,-3.52777 m 0.705556,-0.70556 -0.352777,0.35278 0.352777,-0.35278 m 44.802784,0.35278 c -1.85949,10.01504 -3.55,20.23074 -4.93889,30.33888 -0.35384,2.57493 -0.0684,9.27735 -3.175,9.525 l -1.76389,1.76389 v 0.35278 l 1.41111,-0.35278 -0.35278,1.41111 2.11667,-2.46944 c 0.19403,1.90994 -0.20602,3.53695 -2.11667,4.23333 l 0.35278,0.70556 c -1.23825,0.29457 -2.61902,0.68686 -3.52778,-0.35278 h -0.35277 c 1.00647,1.55222 3.26496,1.05833 4.93888,1.05833 l -0.35277,2.46945 -1.41111,-0.35278 1.41111,1.76389 c -1.31692,-0.0833 -2.35374,-0.47343 -2.82223,-1.76389 h 1.41112 v -0.35278 c -2.62114,-0.47731 -4.06612,0.4886 -4.58612,3.175 h 0.35278 l 1.41111,-2.82222 3.88056,4.23333 -1.41111,0.35278 0.35278,-1.05833 -1.05834,-1.05834 h -1.76389 l 1.41111,1.41111 v 0.70556 c -0.96907,0.29245 -1.41111,0.34854 -1.41111,-0.70556 l -2.46944,0.35278 1.21144,6.79062 3.35104,-0.15804 -1.0347,9.24242 c -6.60824,-3.22227 -5.17349,-10.13848 -4.20476,-15.875 2.08986,-12.37615 4.6101,-24.6768 6.7624,-37.04166 0.58067,-3.33555 0.50412,-9.76115 2.44298,-12.52418 1.07421,-1.53066 4.22804,-2.41663 5.93549,-2.99804 m -20.46111,0.82313 c 0.2727,0 0.0564,0.17562 -0.11748,0.11762 l 0.11748,-0.11762 m -1.05834,0.35278 c 0.2727,0 0.0564,0.17562 -0.11747,0.11762 l 0.11747,-0.11762 m -9.172224,1.41111 0.11748,0.11762 c -0.17392,0.058 -0.39017,-0.11762 -0.11748,-0.11762 m 2.116674,-0.11758 v 0.35278 h -1.05834 l 1.05834,-0.35278 m 21.16666,1.41111 -4.08375,24.69444 -5.79402,31.39722 -3.175,-4.58611 c 2.39642,-0.51364 3.49814,-1.39241 3.52777,-3.88055 -1.58502,-0.1771 -2.407,-0.7172 -3.175,-2.11667 h 1.41112 l -0.35278,-1.05833 2.82222,0.35278 v -0.35278 c -4.21005,-1.02411 -5.40244,2.46168 -1.41111,4.23333 v 0.35278 l -4.93889,0.70555 1.05833,-5.29166 h -0.35277 l -1.05834,4.23333 h -0.70555 l -0.70556,-1.41111 h -0.35278 c 2.1262,4.18465 0.0124,7.48453 0,11.99444 h 0.35278 l 1.41111,-8.46666 c 7.22489,3.5306 4.58611,10.72585 4.58611,16.93333 h 0.35278 l 1.41111,-8.81944 h 0.35278 l 4.75615,7.05555 -0.87559,9.87778 h 0.35277 l 1.41111,-8.81945 c 7.15998,3.40925 3.88056,10.53113 3.88056,16.58056 h 0.35278 l 1.41111,-10.58333 h 0.35278 l 3.66783,5.29166 -1.19839,11.28889 2.11667,-10.23055 2.82222,2.82222 -2.33962,-4.23333 2.3114,-15.16945 1.09114,-5.49698 3.52319,-1.91135 -3.52778,24.69444 h 0.35278 l 2.82222,-16.22777 h 0.35278 l -1.41111,10.93611 h 0.35278 l 0.35278,-2.82223 h 0.35277 v 1.41111 h 0.35278 v -5.29166 c 0.34572,-1.7212 0.89571,-9.62907 2.46945,-9.87778 l -0.35278,-2.82222 h 0.35278 v 1.05833 h 0.35277 v -4.93889 l 2.11667,-8.46666 h -0.35278 v 0.70555 h -0.35277 l 0.70555,-9.525 v -0.35277 l 0.70556,-0.35278 0.35277,0.70555 h 0.35278 v -4.23333 h -0.35278 v 1.05833 h -0.35277 l 0.35277,-1.76389 c 2.02495,-0.2286 1.76248,-2.24084 1.76389,-3.88055 h -0.35277 l -1.05834,0.70556 1.41111,-9.525 h 0.35278 v 2.82222 h 0.35278 l 0.35278,-4.93889 h -0.35278 v 0.70555 h -0.35278 v -1.76388 l 0.70556,1.05833 h 0.35277 l 1.05834,-7.40833 h 0.35278 l -0.35278,2.82222 h 0.35278 l 0.35277,-4.23333 h -1.05833 l -1.05833,7.05555 h -0.35278 l 1.05833,-8.46666 3.175,0.70555 0.35278,3.175 -0.70556,-0.70555 h -0.35277 l 0.35277,3.88055 h -0.35277 v -1.41111 h -0.35278 l -2.17135,14.46389 0.0547,5.64444 v 0.35278 l -0.35278,0.70555 -0.35277,-0.70555 h -0.35278 c 0.0162,1.32291 1.04034,4.67819 -0.70556,4.93889 l 0.35278,2.46944 h -0.35278 v -0.70555 h -0.35277 l 0.70555,1.05833 -1.41111,3.52778 c 0.71332,3.85198 -0.19121,10.20586 -1.76389,13.75833 l -0.40499,4.93889 -2.69981,14.81666 -0.77576,4.58611 0.35278,1.05834 -0.70555,2.11666 h 0.35277 v -1.41111 h 0.35278 l -0.35278,3.52778 h -0.35277 v -1.41111 h -0.35278 l -0.35278,2.82222 0.35278,2.46945 h -0.35278 v -1.41112 h -0.35278 c 0.27094,3.83505 -0.0748,11.85545 -5.29166,10.23056 l 3.175,-15.52222 h 0.35277 l -0.35277,3.175 h 0.35277 l 0.35278,-8.46667 h -0.35278 l -0.70555,5.29167 h -0.35278 v -1.41111 l -1.05833,0.35278 0.35278,2.46944 h 0.35277 v -1.05833 h 0.35278 l -1.41111,8.81944 h -0.35278 v -2.11667 h -0.35278 l -0.35277,7.40834 -0.35278,-1.05834 h -2.46945 c 1.16064,2.17135 5.51286,4.96112 7.37694,2.07822 1.56563,-2.42112 1.60796,-6.3493 2.14806,-9.13377 1.40159,1.07526 5.24193,5.00697 4.49722,6.99064 -0.46461,1.23684 -2.40418,2.07998 -3.43888,2.76966 -3.04624,2.03059 -6.21524,3.96628 -9.17222,6.1147 H 129.6386 C 122.79506,198.08394 117.11252,188.64255 111.0398,180.0076 102.40909,167.73517 93.579766,155.66911 85.522674,142.96594 79.500051,133.47057 71.575921,121.96473 71.077483,110.51039 h 0.352777 l 0.352777,1.05833 h 0.352779 l -0.352779,-2.11667 2.469446,1.76389 c -2.097794,-6.61765 3.310855,-5.99775 8.11389,-5.99722 l -2.116667,13.40555 c -6.004314,-4.63338 0.245179,-7.62666 1.058333,-13.05277 H 80.95526 c -0.936271,2.2486 -2.969223,7.85459 -5.997221,6.70278 l -0.352779,0.35277 5.178425,7.05556 -0.239535,6.35 1.058333,-5.29167 c 4.083402,3.15137 2.156531,6.04485 2.822223,10.23055 l 0.705554,-5.64444 c 4.9784,2.42606 2.8575,7.02451 2.822223,11.28889 h 0.352777 l 1.058333,-6.35 3.527783,3.52778 -1.058337,8.46666 h 0.352777 l 1.05833,-7.40833 c 5.04014,2.5594 3.18735,7.21924 3.175,11.64167 h 0.35278 l 1.05833,-5.99723 1.41112,0.70556 c -1.6757,-2.53859 -0.84773,-5.29625 -0.381,-8.11389 0.95497,-5.76615 1.97485,-11.52207 2.937584,-17.28611 0.33972,-2.03376 0.30868,-6.31373 1.67252,-7.90102 0.89358,-1.03967 3.67171,-0.89217 4.94312,-0.91842 -1.18004,9.33626 -2.72309,18.58116 -4.26156,27.86944 -0.40287,2.43064 -0.21413,8.26488 -2.08844,9.87778 l -1.05834,8.46666 c 1.44851,-1.54551 1.71944,-4.6235 1.76389,-6.70277 l 2.82223,1.76388 c -2.84586,-3.54612 -1.86302,-6.71265 -1.20792,-10.93611 1.04176,-6.71688 2.31493,-13.39955 3.41137,-20.10833 0.46037,-2.81622 0.15522,-7.26425 1.52329,-9.76591 0.78246,-1.43055 4.66125,-1.80767 6.15103,-1.87575 l -6.35,38.80555 h 0.35278 l 0.70556,-3.52778 2.11666,1.76389 -0.70555,2.11667 h 0.35278 v -1.41111 l 3.52777,1.41111 -1.05833,-2.46945 c -1.73813,-0.30268 -1.63724,-1.3716 -1.05833,-2.82222 l -1.05834,1.05833 c -3.35033,-1.6898 -0.72989,-8.28004 -0.30691,-11.28888 0.79692,-5.66561 1.96426,-11.30335 2.97956,-16.93333 0.38029,-2.10983 0.30021,-5.47917 1.55645,-7.26952 1.19451,-1.70219 4.82071,-2.58194 6.70701,-3.31382 m -63.14722,3.175 h 0.352776 l 0.352777,1.41111 -0.705553,-1.41111 m 32.808336,1.76389 -3.88056,21.16667 C 81.664698,124.57387 86.870991,112.13034 87.30526,106.62983 H 86.952483 L 84.13026,122.85761 C 78.696776,120.26998 81.840381,110.3044 82.719149,105.5715 l 9.172227,1.05833 m -36.688893,1.41111 -2.116666,1.05834 c -0.486093,-1.99447 1.007393,-3.074 2.116666,-1.05834 m 41.275003,-0.70555 -4.58611,25.75277 h -0.35278 l -2.66912,-3.88055 0.876655,-7.05556 2.498015,-15.52222 4.23334,0.70556 m 52.916664,-0.35278 v 1.05833 h 0.35278 l -0.35278,-1.05833 m -47.97777,0.35278 -4.938894,30.69166 c -6.94267,-3.94617 -1.92264,-15.5963 -1.05834,-21.87222 0.2854,-2.07292 0.23884,-6.6936 1.7138,-8.2538 0.91793,-0.9712 3.073054,-0.56564 4.283434,-0.56564 m -42.68612,4.23333 -1.763887,-1.05833 -1.411113,0.70555 -0.352777,2.11667 c 1.890818,-0.66936 4.177419,-0.87274 4.93889,1.41111 l -2.469446,-0.70556 -1.411111,1.05834 0.705557,2.11666 -2.469446,-0.70555 3.175,1.41111 v 0.70555 l -2.116667,0.35278 v 0.35278 l 1.058333,1.05833 h -2.116666 l -2.822221,-1.76389 v -0.35277 l 1.058334,-0.35278 v -0.35278 c -2.027979,-1.35361 -0.233363,-4.07458 1.763887,-4.23333 l -0.352777,-3.175 h -0.352777 v 0.70555 h -0.35278 l 0.35278,-1.76388 0.352777,1.05833 h 0.352777 l 1.411113,-0.70556 -0.35278,-1.41111 c 2.381181,0.15992 3.147732,1.22506 3.175,3.52778 m -2.82222,-2.11667 0.352776,1.05834 h 0.352777 l -0.705553,-1.05834 m 15.169443,0.35278 v 0.35278 H 69.66637 l 1.411113,-0.35278 m -22.577777,0.35278 0.705554,1.76389 h 0.35278 v -1.05834 l 2.469443,3.175 -1.058333,0.35278 v -1.76389 l -1.41111,-0.70555 0.352777,1.41111 c -1.781281,-0.29457 -2.297325,-1.61675 -1.411111,-3.175 m 21.75464,0.94075 -0.117616,0.23516 0.117616,-0.23516 m 3.998137,0.11758 0.705556,1.05834 -0.705556,-1.05834 m 74.788897,0 0.35277,0.35278 -0.35277,-0.35278 m -76.787983,0.58798 0.117615,0.23516 -0.117615,-0.23516 m 74.671313,-0.2352 v 1.05833 h 0.35278 l -0.35278,-1.05833 m -73.73056,0.70556 0.352776,0.35277 -0.352776,-0.35277 m 0.352776,0.70555 0.352777,0.35278 -0.352777,-0.35278 m -0.705556,0.35278 0.35278,0.35277 -0.35278,-0.35277 m 76.20001,0.35277 -0.35278,1.05834 0.35278,-1.05834 m -75.84723,0.35278 0.705553,1.41111 h 0.35278 l -1.058333,-1.41111 m -20.108333,1.41111 v 1.05834 h 0.352776 l -0.352776,-1.05834 m 8.466666,0 1.058333,1.41111 -1.058333,-1.41111 m 87.488897,0.70556 -0.35278,0.35278 0.35278,-0.35278 m -75.141677,0.70555 1.058336,2.11667 h 0.352777 l -1.411113,-2.11667 m 0,1.76389 1.411113,2.11667 -1.411113,-2.11667 m 74.318647,0.94086 -0.11783,0.23495 0.11783,-0.23495 m -73.965867,1.17581 0.352777,0.35278 -0.352777,-0.35278 m 1.058333,0.35278 0.705557,0.70555 -0.705557,-0.70555 m -0.705556,0.35278 0.705556,1.76388 h 0.352777 L 74.60526,121.4465 m 70.20278,0 -0.70555,5.64444 h 0.35278 v -1.05833 h 0.35277 v 1.05833 h 0.35278 l -0.35278,-5.64444 m 3.52778,0 v 1.05833 h -0.35278 l 0.35278,-1.05833 m -0.70555,1.41111 v 1.05833 h -0.35278 l 0.35278,-1.05833 m -71.966677,0.70555 0.35278,0.35278 -0.35278,-0.35278 m 67.615867,0.94086 -0.11783,0.23495 0.11783,-0.23495 m 3.99803,0.82303 -0.35278,3.52778 h -0.35278 l 0.70556,-3.52778 m -31.75,4.58611 c -2.68076,0.30868 -2.26025,2.57422 -1.41111,4.58611 l 2.11666,-0.70555 0.35278,-1.76389 c -1.4732,0.35313 -2.26377,0.27023 -2.11667,-1.41111 l 2.11667,1.05833 -0.70556,-1.41111 1.05834,-0.35278 -1.76389,-3.175 2.11667,0.35278 c -0.38771,-1.10137 -2.48991,-2.05528 -2.73721,-0.27234 -0.13123,0.9465 0.70838,2.18933 0.97332,3.09456 m -60.677784,-2.11666 0.705554,8.46666 -1.058333,-1.41111 c -1.88789,1.91029 -4.271291,-0.99236 -6.35,-1.76389 0.585364,3.88832 5.038831,3.74121 5.291666,7.05556 h 1.76389 l 0.352777,-1.41111 c 0.823103,0.14816 1.78929,0.48118 0.705556,1.05833 v 0.35278 c 2.618,-0.2025 2.147359,-1.78647 0,-2.46945 v -0.70555 c 2.382097,-0.79269 4.599517,-1.33527 2.469444,-3.88056 5.242348,-0.82903 -2.18567,-4.41537 -3.880554,-5.29166 m 89.605564,0.70555 -0.35278,1.41111 h -0.35278 l 0.70556,-1.41111 m -89.252787,0.35278 h 0.352777 l 0.705556,3.88055 c -1.263896,-1.05269 -1.712065,-2.31845 -1.058333,-3.88055 m 102.305557,5.99722 2.46945,0.35278 v -0.35278 l -1.41111,-0.70556 2.11666,-1.76388 2.46945,3.175 -1.41111,-1.76389 v -0.35278 l 1.76389,-0.70556 v -0.70555 l -1.05834,-0.35278 -1.41111,1.05833 -1.76389,-1.41111 2.46945,-0.70555 c -2.07187,-3.18065 -3.69112,2.78765 -4.23334,4.23333 m -97.719447,-3.52778 c -0.86515,1.33033 -2.24229,1.74202 -2.82222,0 h 2.82222 m 92.780557,0.35278 c -0.80221,1.17228 -1.31974,2.35232 0.35278,2.82222 -0.24094,3.20428 2.68041,2.51072 4.23334,0.70556 l -3.175,-2.46945 0.35277,1.76389 -1.76389,-2.82222 m -33.86666,0.70556 1.05833,0.70555 -2.11667,3.52778 v 0.35278 l 1.05834,1.41111 2.82222,-0.70556 v -0.35278 l -2.46945,0.35278 c 0.0575,-1.76918 0.53834,-2.68146 2.11667,-3.52778 v -1.05833 l -2.46944,-0.70555 m -59.61945,2.82222 -2.469447,-0.35278 v -0.70556 c 1.24432,-0.23318 1.823652,-0.0455 2.469447,1.05834 m 83.49086,-1.17581 -0.11782,0.23495 0.11782,-0.23495 m 0.70556,0 -0.11783,0.23495 0.11783,-0.23495 m 21.63692,0.11747 1.76389,1.41112 c -0.68616,1.70532 -0.647,3.24732 1.05833,4.23333 -0.45332,-1.35185 -0.55951,-2.02459 0.70555,-2.82222 v -0.70556 l -3.52777,-2.11667 m -112.53612,3.175 c -1.509535,-0.3623 -2.298451,-1.00047 -2.82222,-2.46944 1.549117,0.31362 2.380472,0.9338 2.82222,2.46944 m 0.823137,-2.23414 0.117616,0.23495 -0.117616,-0.23495 m 92.074903,0 0.11783,0.23495 -0.11783,-0.23495 m -29.75081,0.11748 c -1.85914,1.75683 -1.69898,2.69804 -0.70556,4.93889 h 0.35278 l 0.35278,-4.93889 m 40.21666,0 -2.11666,1.41111 -0.35278,-1.05833 2.46944,-0.35278 m 2.46945,0.35278 -1.05833,0.70555 v 0.35278 l 1.41111,-0.70556 -0.35278,-0.35277 m -79.727784,0.35277 0.705557,0.70556 -0.705557,-0.70556 m -23.63611,3.52778 H 54.14415 v -3.175 c 1.192284,0.86007 1.098304,1.83409 0.705556,3.175 m 88.194444,-3.175 -1.05833,8.46667 h 0.35278 l 0.70555,-8.46667 m -0.82302,0.58808 -0.11783,0.23495 0.11783,-0.23495 m 18.81469,0.11748 -1.76389,0.70555 v -0.70555 h 1.76389 m -19.05,1.05833 -0.70555,4.58611 h -0.35278 v -3.88055 l 1.05833,-0.70556 m 17.28611,0 h 0.35278 l 0.35278,2.46944 -0.70556,-2.46944 m -6.70278,0.35278 0.70556,2.46944 -0.70556,-2.46944 m -77.611111,0.70555 2.116667,2.46945 -3.52778,-1.05834 v 1.41112 c 1.065742,-0.20214 2.838734,0.79551 3.666316,0.29598 2.039866,-1.2312 -1.231159,-3.0032 -2.255203,-3.11821 m 5.644444,0 2.116666,3.52778 h 0.352777 l -2.469443,-3.52778 m 45.527037,0.23354 c 1.61502,-0.16615 2.35444,2.1075 0.61277,2.45569 -1.80128,0.36018 -2.56258,-2.25496 -0.61277,-2.45569 m -6.83895,0.5895 0.23495,0.11782 -0.23495,-0.11782 m 35.39525,0.2353 v 1.76389 l -1.05833,-1.41112 1.05833,-0.35277 m -96.308337,4.23333 h -0.352777 v -0.70556 h -0.352779 c 0.15159,1.31975 0.418502,1.88349 1.763889,2.11667 l 0.352777,2.82222 -0.352777,-1.05833 0.352777,-0.35278 h 0.705557 v 2.11667 l 1.76389,0.35278 -1.76389,-3.88056 0.705556,0.35278 -2.116666,-3.88056 3.527776,4.58611 v -4.23333 c -1.669978,-3.46251 -4.086084,-1.06821 -4.233333,1.76389 m 62.088897,-3.52778 -1.41112,1.41111 1.41112,-1.41111 m -58.913897,1.41111 -1.76389,-0.35277 c 0.851255,-0.58632 1.196801,-0.50942 1.76389,0.35277 m 36.688893,-1.05833 2.116664,2.46944 -2.116664,-2.46944 m 18.697224,0 v 1.76389 h 0.35278 l -0.35278,-1.76389 m -3.52778,0.70556 v 0.35277 l 1.41111,-0.70555 -1.41111,0.35278 m 30.69167,-0.35278 0.35278,0.35278 -0.35278,-0.35278 m -91.36945,2.46944 1.058333,0.35278 c -0.261832,-1.79423 1.753375,-2.15018 1.616885,-0.69568 -0.150284,1.60161 -2.342055,1.8976 -2.675218,0.3429 m 88.19445,-0.70555 v 1.05833 h -0.35278 l 0.35278,-1.05833 m 16.22778,1.41111 -1.41112,0.35278 1.76389,2.46944 -5.99722,1.76389 -1.76389,-2.82222 3.52778,-0.70556 v -0.35278 h -1.05833 c 1.05092,-1.66864 3.5373,-2.11984 4.93889,-0.70555 m -56.79723,-0.70556 0.70556,0.70556 -0.70556,-0.70556 m 7.40834,0.35278 0.35277,0.35278 -0.35277,-0.35278 m -23.283341,0.70556 0.352777,0.35277 -0.352777,-0.35277 m 0.705554,0 0.35278,0.35277 -0.35278,-0.35277 m -29.280553,1.05833 v 0.35278 l -1.058334,1.76388 1.058334,-1.05833 1.763887,1.76389 -1.763887,-0.35278 -0.35278,1.05834 c -2.08548,-1.00507 -2.2963,-2.39819 -1.058333,-4.23334 l 1.411113,0.70556 m 97.36667,1.41111 1.41111,-1.76389 c -1.10807,0.33373 -1.43545,0.60255 -1.41111,1.76389 m 11.64167,-0.35278 -3.175,-0.35278 c 1.17439,-1.1938 2.34562,-1.1504 3.175,0.35278 m -83.608341,-0.70555 v 0.35277 l 2.116667,1.05834 -2.116667,-1.41111 m 32.102781,0 0.35278,0.35277 -0.35278,-0.35277 m -34.572227,3.175 c -4.938466,-0.66076 -1.123701,-4.68348 0,0 m 61.383337,-2.82223 -1.76389,13.05278 h -0.35278 c 0.16546,-3.85057 0.44415,-9.57227 2.11667,-13.05278 m 1.05834,0 v 1.05834 h -0.35278 l 0.35278,-1.05834 m -30.33889,0.35278 v 0.35278 l 2.46944,1.41111 -2.46944,-1.76389 m -35.983341,1.05833 -0.352779,1.76389 c -4.063119,-0.18873 -3.063523,-3.3983 0.352779,-1.76389 m 50.094451,-0.70555 v 1.05833 l -2.11667,-0.70555 2.11667,-0.35278 m 25.4,0.70555 c -1.50601,2.58516 -3.3521,-1.52258 0,0 m 14.46389,0.35278 -4.93889,1.05834 c 0.71331,-1.94593 3.64525,-3.05365 4.93889,-1.05834 m -5.64445,-0.35278 v 2.11667 c -2.25636,0.4124 -3.78601,0.0515 -5.29166,-1.76389 l 5.29166,-0.35278 m -92.780557,0.70556 -0.35278,1.05833 h -0.352777 l 0.705557,-1.05833 m 49.036117,0 0.35277,0.35278 -0.35277,-0.35278 m 48.68333,2.82222 c -1.28376,-0.6738 -1.67569,-1.39276 -1.41111,-2.82222 l 1.41111,2.82222 m -14.81667,-1.05833 -1.41111,-1.05833 1.41111,1.05833 m 2.46945,0.35278 c 1.10173,-1.61114 2.29094,-1.40018 3.52778,0 h -3.175 l 2.82222,3.88055 c -2.5721,-0.76376 -4.02555,-2.6677 -5.29167,-4.93889 1.16382,-0.17921 1.50248,0.0572 2.11667,1.05834 m -73.730561,0 v 0.35277 l 2.822221,-0.35277 h -2.822221 m -27.869446,0.35277 v 2.11667 l -1.41111,-2.82222 1.41111,0.70555 m 21.519444,0.70556 -2.469444,0.35278 c 0.705168,-1.2633 1.440109,-1.36172 2.469444,-0.35278 m 46.566673,1.05833 -1.76389,0.35278 -0.35278,-2.46944 2.11667,2.11666 m 2.82222,-1.76389 -0.70555,3.175 -1.76389,-0.70555 v -2.46945 h 2.46944 m 38.80556,3.52778 h 0.35278 v -1.41111 c 1.64958,-0.30444 4.64573,0.85302 5.29166,2.46945 l -3.88055,-0.70556 v 1.76389 l -2.11667,-2.11667 -0.35278,1.41111 -1.41111,-0.35277 1.05833,-3.52778 -2.11666,-0.35278 c 2.3495,-1.75154 3.08751,0.8823 3.175,2.82222 m -74.083341,-2.82222 0.705557,1.41111 h 0.352777 l -1.058334,-1.41111 m 39.158341,3.175 c 2.16182,0.79728 1.51024,2.6737 1.20297,4.58611 -0.67839,4.22557 -1.3716,8.45432 -1.90853,12.7 -5.86246,-2.85856 -4.66443,-8.54745 -3.69005,-13.75833 0.22895,-1.22344 0.16051,-5.77215 1.97026,-5.77286 2.28353,-0.001 0.004,6.19266 -0.61066,7.5364 -0.3563,0.77928 -0.47484,2.35055 0.88547,2.14488 2.49061,-0.37676 2.22109,-5.79084 2.15054,-7.4362 m -63.852784,-1.41111 v 0.35278 l -3.175,-0.35278 h 3.175 m -4.233333,-0.35278 3.175,3.52778 c -2.154343,-0.10019 -4.484582,-0.99766 -3.880557,-3.52778 h 0.705557 m 42.686113,0 v 1.05833 h 0.705554 v -1.05833 h -0.705554 m 40.569444,0 0.35278,0.35278 -0.35278,-0.35278 m -97.013893,2.82222 h 1.411113 l -0.35278,2.11667 -1.058333,-0.35278 c 0.97001,1.59385 1.53489,0.28857 2.912052,0.62054 1.263991,0.3048 4.345083,3.6068 3.790728,-0.26776 l -0.705557,1.41111 -3.880556,-2.46944 v -0.35278 l 2.116669,-1.76389 c -1.431581,-2.20274 -3.946834,-1.45203 -4.233336,1.05833 m 2.469446,-2.11666 -1.411113,1.05833 1.411113,-1.05833 m 40.922223,0 0.352777,2.46944 -2.116667,-1.05833 h -0.352777 v 1.05833 l -3.175,-2.11667 1.058334,1.76389 -1.058334,0.35278 v 0.35278 h 1.058334 l 0.705553,1.76389 c 0.769763,-1.39453 1.700742,-1.39206 3.175,-1.05834 v 0.70556 l -2.469443,0.70556 v 0.35277 c 1.343377,0.75389 2.423583,4.9844 3.880556,2.82223 h -1.411113 l -0.352777,-2.82223 h 1.411111 v -0.35277 l -0.705554,-1.05834 c 1.889125,0.30022 2.992966,1.1303 3.880554,2.82222 l -3.175,-0.70555 3.527779,1.05833 -0.705556,-3.88055 h -2.469444 l 0.705554,-1.41111 v -0.35278 l -1.763887,-1.41111 m 30.691674,0 v 2.46944 h -0.70556 v -2.46944 h 0.70556 m -47.27223,0.35277 0.352777,0.35278 -0.352777,-0.35278 m 72.43693,0.23531 0.11782,0.23495 -0.11782,-0.23495 m -85.842487,0.11747 0.35278,0.35278 -0.35278,-0.35278 m 62.441667,1.05834 -1.05833,-1.05834 1.05833,1.05834 m 20.81389,-1.05834 0.35278,0.35278 -0.35278,-0.35278 m 9.525,0.35278 0.35278,1.76389 c -1.07103,-0.35278 -1.2326,-0.65722 -1.05833,-1.76389 h 0.70555 m -57.855554,0.70556 0.35278,0.35277 -0.35278,-0.35277 m 32.808334,0.35277 0.35278,2.46945 h -0.70556 l -0.70555,-2.11667 0.35278,-0.35278 h 0.70555 m -45.508337,1.05834 c -0.62512,2.31598 -1.891242,1.86443 -3.880554,1.41111 0.606812,-2.04329 2.082623,-2.15336 3.880554,-1.41111 m 49.036117,-0.70556 4.58611,1.76389 -3.175,20.46111 c -5.57988,-4.30601 -3.61668,-8.52382 -2.87726,-14.46389 0.29493,-2.36749 0.0998,-5.76368 1.46615,-7.76111 m -73.025004,0.70556 c 1.020726,1.24848 1.824212,1.83127 1.41111,3.52777 l -1.41111,-2.11666 -1.763889,0.70555 1.763889,-2.11666 m 103.363894,3.175 -2.11667,-2.11667 c 1.40865,0.22437 1.8923,0.70803 2.11667,2.11667 m -64.911114,-1.76389 -0.35278,0.70555 0.35278,-0.70555 m -15.875003,1.41111 -0.352777,1.41111 -3.52778,-1.41111 c 0.971445,-1.26824 2.551184,-0.38382 3.880557,0 m 3.527777,-0.70556 2.469446,2.82223 c -1.696508,0.16051 -3.069521,-1.06927 -2.469446,-2.82223 m 12.699996,0 v 1.41111 h 0.35278 l 0.70556,-0.35277 -1.05834,-1.05834 m -15.522217,0.35278 c 0.990246,1.04952 1.098196,1.79599 0.705554,3.175 -0.968798,-0.94862 -1.235461,-1.89724 -0.705554,-3.175 m 45.508341,0.70556 -1.76389,1.41111 1.76389,-1.41111 m 14.46388,0 v 1.05833 h -0.35277 l 0.35277,-1.05833 m 28.57501,5.64444 c -2.1516,-1.0481 -2.65042,-2.72979 -5.29167,-2.11667 -0.48789,-1.8482 1.03434,-4.04565 3.04094,-2.55516 1.36384,1.01282 1.88807,3.10832 2.25073,4.67183 m -95.25001,-2.82222 c -1.037378,-0.5715 -1.234406,-0.94756 -1.058333,-2.11667 1.164907,0.46849 1.34172,0.90523 1.058333,2.11667 m 5.291666,0 c -1.769181,-0.0575 -2.681605,-0.53834 -3.527776,-2.11667 1.749776,0.0568 2.750642,0.50412 3.527776,2.11667 m 61.030564,-1.05833 v 1.05833 h -0.35278 l 0.35278,-1.05833 m 2.58692,0.94086 0.11783,0.23495 -0.11783,-0.23495 m -55.503594,0.47025 1.76389,1.41111 -1.76389,-1.41111 m 68.438894,0 1.41111,3.175 c -1.47778,-0.5655 -2.02142,-1.67605 -1.41111,-3.175 m -15.875,0.35277 v 1.05834 h -0.35278 l 0.35278,-1.05834 m 1.05833,0 v 1.05834 h 0.35278 l -0.35278,-1.05834 m 25.4,0.35278 0.35278,2.82222 c -1.21497,-0.71014 -1.38218,-1.48307 -1.05833,-2.82222 h 0.70555 m -77.258334,1.41111 0.352777,0.35278 -0.352777,-0.35278 m -7.761113,1.05834 -7.76111,1.76388 c 1.303443,3.4724 -0.360929,7.04392 4.233333,5.99723 l -0.705556,-1.41111 h -0.705557 l -0.705553,1.76388 h -0.35278 l 0.705556,-3.175 -1.058333,-0.35277 v -0.70556 l 0.352777,-0.35278 c 2.112116,0.95145 2.725386,2.51778 3.52778,4.58611 h 0.352776 l -0.705553,-3.52777 c 4.105275,3.19546 3.641018,0.75141 0,-1.41111 v -0.35278 c 1.9915,-0.53305 5.166783,0.57467 2.82222,-2.82222 m 17.286113,0.70555 0.35278,0.35278 -0.35278,-0.35278 m 41.627784,0 v 1.41111 h 0.35277 l -0.35277,-1.41111 m -84.666673,2.82222 c -1.495285,-0.20179 -2.287236,-0.6858 -2.822224,-2.11666 1.529398,0.1711 2.373207,0.60466 2.822224,2.11666 m 26.458333,-1.05833 -2.116667,-1.05833 2.116667,1.05833 m 22.225,-0.35278 c 1.67217,2.07469 3.82553,4.71488 4.23334,7.40834 2.97674,0.12947 5.31212,5.14702 6.82025,7.40833 4.53178,6.79415 9.22196,15.49823 15.05197,21.16666 l -0.70556,0.70556 0.70556,0.70556 -0.70556,2.82222 c -1.93921,-1.15641 -4.18676,-4.21217 -4.93889,-6.35 l 1.41112,0.35278 -1.05834,-2.11667 -0.70555,0.70555 -2.11667,-2.82222 h -0.35278 l 0.35278,-1.05833 -5.99722,-8.11389 -2.46945,-2.46944 h -0.35277 l -1.41112,-3.88056 -0.70555,0.70556 -3.88056,-7.40834 0.70556,0.35278 v -0.35278 -1.05833 l -0.70556,-1.05833 -0.70555,-0.70556 -1.05834,0.35278 c -0.71966,-1.50918 -2.31951,-3.74685 -1.41111,-5.29167 m -8.113894,0.70556 0.35278,4.58611 h -0.35278 v -1.05833 h -0.35277 v 1.05833 h -0.35278 l -0.35278,-2.82222 0.70556,0.35277 0.35277,-2.11666 m -18.34444,0.35278 v 0.70555 h -1.058333 v -0.70555 h 1.058333 m -21.166666,1.41111 v 0.35277 c -1.789853,1.21391 -4.930034,1.67676 -3.527777,-1.41111 l 3.527777,1.05834 m 2.822223,0.70555 -2.469446,-0.70555 v -0.70556 l 0.352779,-0.35278 2.116667,1.76389 m -7.761113,0.35278 -2.116667,-1.76389 c 1.319602,0.1517 1.883376,0.4184 2.116667,1.76389 m 16.580556,-1.41111 v 1.05833 h 0.352777 l -0.352777,-1.05833 m 13.052777,0.70555 v 1.05834 h -0.705554 v -1.05834 h 0.705554 m -21.166666,2.11667 -3.527777,-1.41111 c 1.60207,-0.34713 2.970495,-0.30903 3.527777,1.41111 m 3.175,-0.35278 H 60.49415 v 1.05834 h -1.41111 v -2.11667 c 0.805603,0.003 1.69954,-0.0765 2.468631,0.21273 4.565827,1.71802 0.149825,6.51721 -0.704744,0.8456 m 79.257533,-0.82303 -0.11783,0.23495 0.11783,-0.23495 m -81.726977,1.17581 3.880557,4.58611 -1.411113,0.35278 -1.058334,-1.41111 0.35278,1.05833 H 58.73026 l -1.41111,-4.23333 1.058333,-0.35278 m -3.175,3.88056 -1.058333,-2.46945 c 2.308436,-2.3188 5.219734,2.33292 1.058333,2.46945 m 38.335303,-2.23414 -0.11783,0.23495 0.11783,-0.23495 m 42.803594,-0.23531 v 1.76389 h 0.35277 l -0.35277,-1.76389 m -1.05834,1.05834 v 1.41111 h 0.35278 l -0.35278,-1.41111 m 0.70556,1.05833 v 1.05833 h 0.35278 l -0.35278,-1.05833 m -40.922224,0.70555 c 0.82373,1.7145 0.91369,3.1556 -1.05834,3.88056 l 1.05834,-2.46944 -1.05834,-0.70556 1.05834,-0.70556 m 11.288884,0 0.70556,1.41112 h 0.35278 l -1.05834,-1.41112 m -50.094444,0.70556 0.352777,1.41111 h 0.35278 l -0.705557,-1.41111 m 92.427784,0 1.05833,1.76389 h 0.35278 l 1.41111,-0.70556 -0.35278,1.05834 -0.70555,-0.35278 h -0.35278 l 3.175,-0.35278 -0.35278,1.05833 v 1.41112 l 2.11667,1.41111 v 0.70555 l -0.35278,0.35278 -1.76389,-0.35278 -1.05833,-2.82222 1.05833,0.35278 -5.29166,-0.70556 0.35277,1.41111 2.82223,0.70556 -0.35278,-1.05833 2.11666,1.76388 h -5.29166 v -1.41111 l -4.23334,0.35278 -0.35277,1.05833 1.05833,1.41112 -1.41111,0.35277 v -2.11666 h -1.76389 -0.35278 v 2.11666 h 0.35278 v -1.05833 h 1.41111 l -2.11667,1.76389 -0.35277,-3.175 0.70555,-0.70556 1.05834,0.35278 3.175,-1.05833 c 0.46637,-1.07245 2.44228,-2.44299 2.82222,-0.70556 h 0.35278 l 1.05833,-2.82222 m -1.41111,0.35278 v 0.70555 h -0.70556 v -0.70555 h 0.70556 m -1.41111,0.35278 v 1.05833 h -0.70556 v -1.05833 h 0.70556 m -39.15834,0.35277 2.11667,3.52778 h 0.35278 l -2.46945,-3.52778 m 41.62778,0 v 0.70556 h 0.70556 l -0.70556,-0.70556 m -53.151974,0.58809 0.11783,0.23495 -0.11783,-0.23495 m 49.271424,-0.23531 -1.41112,1.41111 0.70556,-1.41111 h 0.70556 m -44.09723,1.41111 0.70556,0.70556 c 0.72178,-0.79763 1.22978,-0.47978 1.76389,0.35278 -0.90876,-0.0942 -2.70475,0.18203 -2.46945,-1.05834 m 3.175,0 0.35278,1.05834 -0.35278,-1.05834 m -46.919447,0.35278 c 1.397037,0.8322 2.132648,1.50601 1.76389,3.175 -1.462299,-0.53305 -2.318702,-1.60761 -1.76389,-3.175 m 42.333333,0.70556 c 0.35807,-0.82339 0.5013,-0.32103 0.70556,0.35277 -1.16276,0 -0.0907,2.92065 0.705554,3.35139 2.19887,1.18957 5.66702,-2.04681 7.40834,0.88195 -2.12937,0.44379 -7.64399,1.06786 -8.819454,-1.05834 l -1.05833,0.35278 -1.05834,-2.11667 0.70556,2.82223 -1.76389,-2.82223 2.46945,-1.76388 -4.23334,2.46944 2.11667,1.76389 -4.23333,-1.41111 0.35277,1.05833 -2.116663,-0.70555 1.058333,0.35277 4.58611,-4.23333 3.175,0.70556 m 5.997224,-0.70556 v 1.05833 h -0.70555 v -1.05833 h 0.70555 m 37.39445,0.11748 c 0.2727,0 0.0564,0.17568 -0.11747,0.11782 l 0.11747,-0.11782 m 13.05278,3.05752 0.70555,-1.76389 -1.05833,-0.70555 -0.70556,0.35277 -0.35277,-1.05833 c 1.77835,0.23848 4.10633,2.28 1.41111,3.175 m -49.38889,-2.82222 v 1.05833 h -0.35278 l 0.35278,-1.05833 m -11.288894,0.70555 0.35278,0.35278 -0.35278,-0.35278 m 10.583334,0.35278 0.35278,2.11667 -2.46945,-0.70556 -1.05833,1.05834 0.35278,-1.41112 -2.11667,1.41112 -0.705554,-2.11667 5.644444,-0.35278 m 41.275,1.41111 -1.05833,-1.05833 1.05833,1.05833 m -40.21667,-0.70555 0.35278,1.41111 h -0.35278 v -1.41111 m -8.113884,0.35277 0.70555,1.05834 -0.70555,-1.05834 m 40.922224,0 v 1.05834 h -0.35278 l 0.35278,-1.05834 m 12.7,0.35278 v 0.70556 h -1.05833 v -0.70556 h 1.05833 m 1.76389,0.35278 v 0.70556 h -0.70556 v -0.70556 h 0.70556 m 1.05833,0.35278 v 1.05833 h -0.70555 v -1.05833 h 0.70555 m -21.87222,0.35278 -0.35278,1.05833 0.35278,-1.05833 m 22.93055,0 v 1.05833 h -0.70555 v -1.05833 h 0.70555 m -16.58055,0.35277 -0.35278,1.76389 h -0.35278 v -1.76389 h 0.70556 m -50.800007,1.88137 c 0.272698,0 0.05645,0.17568 -0.117475,0.11783 l 0.117475,-0.11783 m 5.644443,-0.11748 0.70556,1.41111 -0.70556,-1.41111 m 38.452784,0 v 1.05833 h 0.35278 l -0.35278,-1.05833 m -52.563894,0.70556 2.116667,1.05833 c -0.684387,1.19098 -1.149702,1.50178 -2.469443,1.05833 v -0.35277 l 1.41111,0.35277 -1.058334,-2.11666 m 5.997223,0 h 2.116667 l -1.41111,1.05833 c 0,0.99695 -0.402873,0.9846 -1.411113,1.05833 l 1.411113,-1.05833 v -0.35278 l -1.058333,-0.35278 0.352776,-0.35277 m 48.330561,0 -1.41111,8.46666 h 0.35278 v -1.76389 h 1.05833 v -1.41111 h -0.35278 v 0.70556 h -0.35278 l 0.70556,-5.99722 m -43.038894,0.35277 0.35278,0.35278 -0.35278,-0.35278 m -8.11389,0.35278 1.411113,0.35278 v 0.35278 l -1.058333,1.76389 h -1.76389 l 0.705557,-2.11667 0.705553,-0.35278 m 30.338894,0.35278 0.70556,1.41111 -0.70556,-1.41111 m 18.69722,0 v 1.05833 h 0.35278 l -0.35278,-1.05833 m 32.80834,1.76389 -1.76389,-0.35278 v -0.70555 c 1.10666,-0.17428 1.41111,-0.0127 1.76389,1.05833 m -12.34723,1.76389 v -0.35278 l -2.11666,-1.05833 1.41111,-0.35278 c -2.45498,-1.57198 -2.74002,2.59433 0.70555,1.76389 m -65.26389,-2.11667 v 0.35278 l 1.411113,0.70555 -1.411113,-1.05833 m 8.113886,0 -1.41111,1.41111 1.41111,-1.41111 m 66.675004,0.35278 -0.35277,1.41111 -1.41111,-1.41111 h 1.76388 m -79.375001,0.70555 -1.41111,3.88056 H 80.95526 l 0.352779,-3.88056 h 1.41111 m 4.233334,0 1.058333,0.70556 v -0.35278 l -1.058333,-0.35278 m -3.175,0.70556 0.352777,0.35278 -0.352777,3.175 -1.41111,-0.35278 0.705553,-1.05833 v -2.11667 h 0.705557 m 1.76389,1.05833 v 0.35278 l 1.058333,0.35278 -1.058333,-0.70556 m 30.691667,0 0.35278,1.05834 h -0.35278 v -1.05834 m 19.75556,0.35278 0.35278,0.35278 -0.35278,-0.35278 m -50.800007,0.70556 0.35278,0.35277 -0.35278,-0.35277 m 69.144447,0 -0.70555,2.46944 c -1.12042,-1.14335 -0.79164,-2.0133 0.70555,-2.46944 m 9.87778,1.41111 h -2.46944 c 0.75953,-1.26295 1.70991,-1.26295 2.46944,0 m -45.15556,-1.05834 0.70556,0.70556 -0.70556,-0.70556 m 11.99445,0.35278 -0.70556,1.05834 0.70556,-1.05834 m 38.45278,1.76389 -1.41111,-1.76389 c 1.10807,0.33373 1.43545,0.60255 1.41111,1.76389 m -51.85834,-1.41111 0.70556,1.41111 h -0.35278 l -0.35278,-1.41111 m 49.74167,2.11667 c -2.3883,-1.32574 0.62724,-2.75202 0,0 m -86.077781,-1.41111 c -0.108656,1.40123 -0.467783,1.91981 -1.763889,2.46944 l 1.058333,-2.46944 h 0.705556 m 43.391671,0 c 0.40146,0.87594 0.53516,1.14194 1.41111,0.70555 l 1.41111,2.11667 -0.35278,-1.76389 h 0.35278 l 1.41111,2.11667 -2.11666,-3.175 0.35277,1.05833 -2.46944,-1.05833 m 3.52778,0 0.35277,0.35277 -0.35277,-0.35277 m -2.46945,0.35277 -0.35278,0.35278 0.35278,-0.35278 m 37.39445,0 -0.35278,3.175 -2.11667,-2.11666 2.46945,-1.05834 m -80.433341,0.35278 v 0.35278 l 1.058334,0.35278 -1.058334,-0.70556 m 49.741671,0 v 1.41111 h 0.35278 l -0.35278,-1.41111 m 31.75,0.35278 v 1.76389 h -0.70555 l -0.35278,-0.35278 1.05833,-1.41111 m -78.316671,0.35278 -0.352776,1.76389 -1.058334,0.35277 v 0.35278 l 0.352777,0.35278 h 0.705557 l 0.352776,-2.82222 m -1.41111,0.35277 0.352777,0.35278 -0.352777,-0.35278 m 58.208341,0.35278 -0.70556,2.11667 h -0.35278 v -0.70556 h -0.35277 c -0.042,1.38571 -0.24413,2.85962 -1.76389,3.175 -0.18098,0.87313 -0.21308,0.90841 -1.05834,0.70556 0.11748,1.24072 0.3048,2.18758 -1.05833,2.46944 -0.0688,0.63712 -0.25647,1.73885 -0.70556,0.70556 h -0.35277 c -0.52952,3.28083 -5.37739,4.84293 -8.11389,3.52778 l 0.76447,-4.11586 4.87997,-2.9397 h 0.35278 v 2.11667 h 0.70555 l 1.76389,-3.88056 0.35278,1.05834 h 0.35278 c 0.0155,-0.59232 0.18062,-2.26589 0.70555,-1.05834 h 0.35278 v -1.41111 l 0.70556,0.70556 h 0.35278 l 2.11666,-2.82223 1.05834,0.35278 m -59.619454,0 0.705557,0.70556 v -0.70556 h -0.705557 m 50.094454,0 0.35277,0.35278 -0.35277,-0.35278 m 28.22222,0.70556 0.70555,1.05833 -1.41111,0.35278 0.70556,-1.41111 m -39.86389,0.70555 0.70555,0.70556 -0.70555,-0.70556 m -33.513894,1.41111 v 0.70556 H 87.30526 v -0.70556 h 0.705556 m 36.100814,0.58809 0.11783,0.23495 -0.11783,-0.23495 m 14.69919,0.47025 v 1.05833 h 0.35278 l -0.35278,-1.05833 m -52.563894,1.05833 -0.705553,1.41111 -1.411113,-0.35278 c 0.400756,-1.2072 0.906639,-1.33491 2.116666,-1.05833 m 51.623034,0.94086 0.11783,0.23495 -0.11783,-0.23495 m -12.81747,0.47025 0.35277,0.35278 -0.35277,-0.35278 m 12.34722,0.35278 0.35278,0.35278 -0.35278,-0.35278 m -1.64641,0.58808 0.11782,0.23495 -0.11782,-0.23495 m -1.88137,0.82303 v 2.46944 h 0.35278 l 0.35278,-2.46944 h -0.70556 m -58.208337,0.70556 c -0.864693,1.76212 -2.058916,1.86372 -3.880556,1.76388 v -0.35277 l 0.705556,-0.70556 h 2.469446 v -0.35278 l -1.411113,-0.35277 h 2.116667 m 3.175,0.35277 -2.82222,3.52778 v 0.35278 l 2.469443,0.70555 c -0.523981,-1.80234 0.371827,-2.81022 1.41111,-4.23333 l -1.058333,-0.35278 m 56.561927,0.23531 0.11783,0.23495 -0.11783,-0.23495 m -8.23137,1.1758 0.35278,0.70556 h -0.70555 l 0.35277,-0.70556 m -55.386113,1.05834 v 0.35278 l 2.469446,0.35277 -2.469446,-0.70555 m 3.527779,2.11666 1.76389,1.41112 -1.76389,-1.41112 m -0.705556,1.05834 0.352779,4.58611 -1.058336,-0.35278 v 0.35278 l 2.822223,0.35278 v -0.35278 l -1.058333,-0.35278 1.058333,-1.41111 0.35278,-1.05833 v -0.35278 l -2.469446,-1.41111 m -4.233333,0.35278 0.352776,1.41111 v 0.35277 l -2.82222,0.35278 v 0.35278 l 1.058333,0.35278 -1.763889,0.35278 v 0.35277 l 1.058333,0.70556 -2.822221,-0.35278 v -0.35278 l 1.763888,-0.35277 v -0.35278 h -1.058334 v -0.35278 h 1.411113 v -0.35278 l -0.705556,-0.35278 1.41111,-0.35277 v -0.35278 l -0.705554,-1.05833 h 2.822221 m 7.055556,0.35277 0.352777,0.35278 -0.352777,-0.35278 m 0,3.52778 0.705556,0.70556 z"
           id="path22" />
        <path
           style="fill:#645a3c;stroke-width:3.04049768;fill-opacity:1;stroke:#000000;stroke-opacity:1;stroke-miterlimit:4;stroke-dasharray:none;stroke-dashoffset:0;stroke-linejoin:miter;stroke-linecap:butt;paint-order:normal"
           d="m 489.40034,798.29645 c -3.69483,-0.4472 -3.8813,-0.79358 -3.05849,-5.6812 1.55173,-9.21761 2.07144,-9.96692 10.43799,-15.04933 4.5314,-2.75268 8.63297,-5.00488 9.11458,-5.00488 0.48162,0 0.87567,1.591 0.87567,3.53554 0,5.30193 3.47156,4.29289 6.22303,-1.80878 1.45895,-3.23539 4.055,-6.07249 6.57874,-7.18961 2.29284,-1.01491 4.16879,-2.72656 4.16879,-3.80368 0,-1.078 0.87174,-1.62389 1.93912,-1.21429 1.15867,0.44462 3.66411,-1.60151 6.22506,-5.08385 2.89524,-3.93692 4.63054,-5.27035 5.348,-4.10949 0.60391,0.97715 0.0942,2.4262 -1.18155,3.35905 -1.23399,0.90231 -2.66645,3.32525 -3.18324,5.3843 -1.13883,4.53748 -4.15668,7.27784 -6.86871,6.23714 -2.05415,-0.78825 -3.63658,2.77346 -3.67358,8.26847 -0.0182,2.70895 -4.43567,7.73891 -6.7965,7.73891 -0.5984,0 -1.78756,1.85337 -2.64259,4.11859 -2.37059,6.28042 -14.13584,11.43727 -23.50632,10.30311 z m 18.80327,-7.70418 c 0.0106,-0.97227 0.40305,-3.19966 0.87205,-4.94975 0.62691,-2.3393 0.24727,-3.18198 -1.43352,-3.18198 -1.67006,0 -2.28626,1.33407 -2.28626,4.94975 0,2.72236 0.63639,4.94974 1.41421,4.94974 0.77782,0 1.4229,-0.79549 1.43352,-1.76776 z"
           id="path76"
           transform="scale(0.26458333)" />
        <path
           style="fill:#645a3c;stroke-width:3.04049768;fill-opacity:1;stroke:#000000;stroke-opacity:1;stroke-miterlimit:4;stroke-dasharray:none;stroke-dashoffset:0;stroke-linejoin:miter;stroke-linecap:butt;paint-order:normal"
           d="m 475.36786,785.65184 c -4.33943,-4.6158 -11.02418,-14.38843 -11.02418,-16.11657 0,-0.66928 0.97094,-1.21687 2.15764,-1.21687 1.91336,0 1.90253,-0.49331 -0.0956,-4.35726 -1.35445,-2.61921 -3.01991,-4.06306 -4.1753,-3.6197 -2.14527,0.82322 -9.20046,-7.56189 -9.20046,-10.93478 0,-2.7837 -23.65045,-34.47202 -29.23553,-39.17156 -2.37516,-1.99856 -5.06479,-5.89513 -5.97696,-8.65903 -0.91217,-2.7639 -4.46191,-8.76495 -7.8883,-13.33565 -3.42639,-4.5707 -5.63604,-8.5208 -4.91033,-8.778 0.78781,-0.27921 0.7256,-1.57731 -0.15439,-3.22159 -0.81063,-1.51467 -2.08283,-2.37759 -2.82712,-1.9176 -1.95588,1.2088 -3.40452,-3.49421 -1.62457,-5.27416 3.22299,-3.22299 10.89641,4.1602 21.58367,20.76732 30.33544,47.13877 41.24902,63.30134 49.91932,73.92849 5.24556,6.42946 9.17756,12.27215 8.73776,12.98376 -0.43979,0.7116 -0.15051,1.69499 0.64285,2.18532 1.43306,0.88568 0.5279,7.51894 -1.30541,9.56631 -0.52695,0.58849 -2.60735,-0.6843 -4.6231,-2.82843 z"
           id="path78"
           transform="scale(0.26458333)" />
        <path
           style="fill:#645a3c;stroke-width:3.04049768;fill-opacity:1;stroke:#000000;stroke-opacity:1;stroke-miterlimit:4;stroke-dasharray:none;stroke-dashoffset:0;stroke-linejoin:miter;stroke-linecap:butt;paint-order:normal"
           d="m 388.03581,654.12066 c -0.99471,-2.139 -2.33735,-5.68144 -2.98365,-7.8721 -1.64617,-5.57977 0.88742,-4.33776 6.24864,3.06319 3.6502,5.03896 4.02532,6.24229 2.28838,7.3408 -3.08033,1.94812 -3.57486,1.72265 -5.55337,-2.53189 z"
           id="path80"
           transform="scale(0.26458333)" />
        <path
           style="fill:#645a3c;stroke-width:3.04049768;fill-opacity:1;stroke:#000000;stroke-opacity:1;stroke-miterlimit:4;stroke-dasharray:none;stroke-dashoffset:0;stroke-linejoin:miter;stroke-linecap:butt;paint-order:normal"
           d="m 376.19104,638.68216 c -0.51855,-0.51854 -0.94281,-2.61075 -0.94281,-4.64936 0,-2.57641 -2.15598,-5.8301 -7.07107,-10.67129 -3.88909,-3.8306 -7.07107,-8.0648 -7.07107,-9.40931 0,-1.34452 -0.63639,-2.83789 -1.41421,-3.31861 -2.07117,-1.28005 -1.72505,-3.53553 0.54255,-3.53553 2.12521,0 10.93704,9.16713 13.60658,14.15521 0.91006,1.70046 2.8375,6.52974 4.28319,10.73172 1.98829,5.77906 2.1878,7.63998 0.81909,7.63998 -0.99519,0 -2.23371,-0.42426 -2.75225,-0.94281 z"
           id="path82"
           transform="scale(0.26458333)" />
        <path
           style="fill:#645a3c;stroke-width:3.04049768;fill-opacity:1;stroke:#000000;stroke-opacity:1;stroke-miterlimit:4;stroke-dasharray:none;stroke-dashoffset:0;stroke-linejoin:miter;stroke-linecap:butt;paint-order:normal"
           d="m 355.09569,603.66472 c -1.36118,-1.00552 -2.47488,-2.87342 -2.47488,-4.15088 0,-1.27744 -2.60554,-4.67659 -5.79009,-7.55364 -11.05304,-9.98576 -25.90001,-33.72527 -30.33357,-48.50175 -0.58345,-1.94454 -3.83124,-7.66532 -7.21731,-12.71282 -3.38608,-5.04751 -6.1565,-10.0575 -6.1565,-11.13332 0,-1.48756 -0.46002,-1.57425 -1.92072,-0.36197 -1.53329,1.27251 -2.81699,-0.0875 -6.36397,-6.74231 -2.44378,-4.58501 -4.44323,-9.73165 -4.44323,-11.43701 0,-1.70535 -3.74411,-7.98023 -8.32024,-13.94418 -9.85502,-12.84377 -12.18138,-17.2531 -13.44235,-25.47837 -0.51852,-3.38226 -3.74339,-13.72381 -7.16639,-22.98124 -7.87835,-21.30683 -9.77724,-29.86452 -9.00269,-40.57246 0.79932,-11.0505 6.22121,-19.36613 15.2245,-23.35003 5.43049,-2.40295 8.31236,-2.67095 21.2132,-1.97271 8.21095,0.44441 27.02052,2.84537 41.79905,5.33548 20.25604,3.41304 31.56949,4.56454 45.96194,4.67808 26.95763,0.21268 34.12697,-2.06149 79.90307,-25.34584 20.22325,-10.28671 41.33716,-20.34004 46.9198,-22.34074 30.07755,-10.77914 58.00903,-7.34862 78.62535,9.65668 8.73611,7.20595 9.64883,8.50162 12.42326,17.63583 3.50342,11.53428 2.51905,16.78505 -4.68486,24.98987 -7.97487,9.08286 -15.03549,11.05048 -21.47557,5.9847 -7.55912,-5.94599 -7.55852,-15.37063 9.6e-4,-15.37063 3.48169,0 3.49615,0.0502 1.26018,4.37407 -2.78784,5.3911 -1.82995,6.63098 2.78617,3.60638 6.09142,-3.99126 6.78808,-20.06767 1.19429,-27.55996 -9.62605,-12.89304 -39.96427,-14.50957 -71.79475,-3.82549 -7.77817,2.61079 -25.76544,10.23293 -39.97171,16.93809 -31.5,14.86756 -46.48622,20.02127 -64.34267,22.1272 -14.78705,1.74393 -23.75118,1.14903 -66.09835,-4.38655 -41.53141,-5.42896 -63.68152,-2.67613 -70.66767,8.7826 -2.87178,4.7103 -3.95036,13.88479 -1.63234,13.88479 0.6815,0 1.52117,3.40161 1.86595,7.55913 0.45823,5.52573 3.13651,12.84888 9.95642,27.22361 12.251,25.82218 13.80859,29.77615 13.80859,35.05336 0,2.70949 0.97245,5.04416 2.49782,5.99676 1.37379,0.85795 4.34223,4.98851 6.59652,9.17902 2.25429,4.1905 8.12388,13.428 13.04353,20.52776 9.56053,13.79723 16.0096,26.27517 16.03208,31.01956 0.008,1.60515 1.96925,4.36175 4.36363,6.13199 2.3924,1.76877 7.2446,7.77512 10.78266,13.34743 3.53807,5.5723 9.58585,15.01786 13.43952,20.99013 7.02529,10.8875 8.92219,18.62991 3.60137,14.69938 z"
           id="path84"
           transform="scale(0.26458333)" />
      </g>
    </g>
  </g>
</svg>
